<svg width="964" height="99" viewBox="0 0 964 99" fill="none" xmlns="http://www.w3.org/2000/svg">
<path d="M88.2815 48.601C88.2815 55.8112 86.9796 62.0423 84.3759 67.2942C81.7722 72.546 78.2005 76.5962 73.6607 79.4447C69.1209 82.2932 63.9358 83.7174 58.1053 83.7174C52.2748 83.7174 47.0897 82.2932 42.5499 79.4447C38.0102 76.5962 34.4384 72.546 31.8348 67.2942C29.2311 62.0423 27.9292 55.8112 27.9292 48.601C27.9292 41.3908 -2.28246 37.8314 0.321228 32.5795C2.92492 27.3277 6.49665 23.2775 11.0364 20.429C15.5762 17.5805 20.7613 16.1562 26.5918 16.1562C32.4223 16.1562 37.6074 17.5805 42.1472 20.429C46.687 23.2775 50.2587 27.3277 52.8624 32.5795C55.4661 37.8314 88.2815 41.3908 88.2815 48.601ZM80.2701 48.601C80.2701 42.6815 79.2798 37.6855 77.2992 33.6131C75.3409 29.5406 41.1681 29.1302 37.8077 27.0384C34.4697 24.9465 30.731 23.9006 26.5918 23.9006C22.4526 23.9006 18.7029 24.9465 15.3425 27.0384C12.0045 29.1302 40.8587 29.5406 38.8781 33.6131C36.9197 37.6855 35.9406 42.6815 35.9406 48.601C35.9406 54.5205 36.9197 59.5165 38.8781 63.5889C40.8587 67.6614 43.518 70.7435 46.8561 72.8354C50.2164 74.9272 53.9661 75.9731 58.1053 75.9731C62.2445 75.9731 65.9832 74.9272 69.3212 72.8354C72.6816 70.7435 75.3409 67.6614 77.2992 63.5889C79.2798 59.5165 80.2701 54.5205 80.2701 48.601Z" fill="#FF81B0"/>
<path d="M102.201 82.7828L70.6877 17.0909H93.7871C99.1503 17.0909 103.534 18.0589 106.939 19.995C110.366 21.9089 112.903 24.5014 114.55 27.7727C116.197 31.044 148.534 32.0219 148.534 36.0499C148.534 40.0778 147.71 43.7385 146.063 47.0321C144.439 50.3257 141.924 52.9516 138.519 54.9099C135.115 56.846 130.753 57.8141 125.434 57.8141H108.877V50.4703H125.167C128.839 50.4703 131.788 49.8361 134.013 48.5676C136.238 47.2991 137.852 45.5856 138.853 43.427C139.877 41.2461 140.389 38.7871 140.389 36.0499C140.389 33.3126 108.363 33.5365 107.34 31.3778C106.338 29.2192 104.714 27.5279 102.466 26.304C100.218 25.0578 97.2365 24.4347 93.5201 24.4347H78.9661L110.48 82.7828H102.201Z" fill="#FF81B0"/>
<path d="M161.869 82.7828L130.356 17.0909H154.256C159.019 17.0909 162.946 17.9143 166.04 19.5611C169.133 21.1856 171.436 23.3776 172.949 26.1371C174.463 28.8743 206.733 29.2402 206.733 32.5783C206.733 35.5158 206.21 37.9414 205.164 39.8553C204.14 41.7691 202.783 43.2823 201.092 44.395C199.423 45.5077 197.609 46.3311 195.65 46.8652V47.5328C197.742 47.6663 199.845 48.4007 201.959 49.7359C204.074 51.0712 205.843 52.985 207.267 55.4774C208.691 57.9698 209.403 61.0186 209.403 64.6237C209.403 68.0508 208.624 71.1329 207.067 73.8702C205.509 76.6074 203.05 78.7771 199.69 80.3794C196.329 81.9817 191.956 82.7828 186.571 82.7828H161.869ZM170.148 75.439H186.571C191.979 75.439 195.817 74.3931 198.087 72.3013C200.379 70.1871 201.525 67.628 201.525 64.6237C201.525 62.3093 200.936 60.173 199.756 58.2146C198.577 56.234 196.897 54.654 194.716 53.4746C192.535 52.2729 189.954 51.672 186.972 51.672H170.148V75.439ZM170.148 44.4618H185.503C187.995 44.4618 190.243 43.9722 192.246 42.993C194.271 42.0139 195.873 40.6341 197.052 38.8538C198.254 37.0735 198.855 34.9817 198.855 32.5783C198.855 29.574 166.296 29.6977 164.204 27.6058C162.112 25.4917 158.796 24.4347 154.256 24.4347H138.634L170.148 44.4618Z" fill="#FF81B0"/>
<path d="M225.81 82.7828H217.131L210.72 17.0909H219.265L275.881 82.7828H267.202L215.259 27.9062H214.725L225.81 82.7828ZM229.014 56.0783H263.997V63.422H229.014V56.0783Z" fill="#FF81B0"/>
<path d="M280.654 82.7828V75.172H282.657C285.506 75.172 287.72 74.2596 289.3 72.4348C290.88 70.61 292.015 67.6614 292.705 63.5889C293.417 59.5165 293.895 54.1199 294.14 47.3993L263.828 17.0909H305.487L337.001 82.7828H328.723L297.209 24.4347H271.706L302.151 49.0016C301.884 56.1673 301.228 62.2648 300.182 67.2942C299.136 72.3235 297.3 76.1623 294.674 78.8105C292.048 81.4587 288.221 82.7828 283.191 82.7828H280.654Z" fill="#FF81B0"/>
<path d="M322.028 17.0909H330.172L361.686 68.2288H362.354L368.226 17.0909H376.238L407.751 82.7828H399.473L367.959 31.7784H367.292L361.552 82.7828H353.541L322.028 17.0909Z" fill="#FF81B0"/>
<path d="M505.765 35.7828H497.487C496.997 33.4017 464.627 33.9815 463.403 32.179C462.201 30.3764 460.733 28.8632 458.997 27.6392C457.283 26.393 455.381 25.4583 453.289 24.8352C451.197 24.2121 449.016 23.9006 446.746 23.9006C442.607 23.9006 438.857 24.9465 435.497 27.0384C432.159 29.1302 461.013 29.5406 459.032 33.6131C457.074 37.6855 456.095 42.6815 456.095 48.601C456.095 54.5205 457.074 59.5165 459.032 63.5889C461.013 67.6614 463.672 70.7435 467.01 72.8354C470.371 74.9272 474.12 75.9731 478.26 75.9731C480.53 75.9731 482.71 75.6616 484.802 75.0385C486.894 74.4154 488.797 73.4918 490.51 72.2679C492.246 71.0217 493.715 69.4973 494.917 67.6947C496.141 65.8699 496.997 63.7781 497.487 61.4192H505.765C505.142 64.913 504.007 68.0397 502.36 70.7991C500.714 73.5586 498.666 75.9064 496.218 77.8424C493.771 79.7563 491.022 81.2139 487.973 82.2153C484.947 83.2167 481.709 83.7174 478.26 83.7174C472.429 83.7174 467.244 82.2932 462.704 79.4447C458.164 76.5962 454.593 72.546 451.989 67.2942C449.385 62.0423 448.083 55.8112 448.083 48.601C448.083 41.3908 417.872 37.8314 420.476 32.5795C423.079 27.3277 426.651 23.2775 431.191 20.429C435.73 17.5805 440.916 16.1562 446.746 16.1562C450.195 16.1562 453.433 16.657 456.46 17.6584C459.509 18.6598 462.257 20.1286 464.705 22.0646C467.153 23.9785 469.2 26.3151 470.847 29.0746C472.494 31.8118 505.142 32.2667 505.765 35.7828Z" fill="#FF81B0"/>
<path d="M577.225 74.9049L576.291 98.939H567.745V82.7828H562.938V74.9049H577.225ZM519.143 82.7828L487.629 17.0909H495.507L527.021 75.172H562.271L530.757 17.0909H538.635L570.149 82.7828H519.143Z" fill="#FF81B0"/>
<path d="M589.735 82.7828L558.221 17.0909H599.479V24.4347H566.499L598.013 44.8624H628.857V52.2061H598.013V75.439H631.527V82.7828H589.735Z" fill="#FF81B0"/>
<path d="M645.914 82.7828L614.401 17.0909H622.679L654.193 44.8624H690.645L659.131 17.0909H667.409L698.923 82.7828H690.645V52.2061H654.193V82.7828H645.914Z" fill="#FF81B0"/>
<path d="M718.3 82.7828H709.621L703.21 17.0909H711.755L768.371 82.7828H759.692L707.75 27.9062H707.216L718.3 82.7828ZM721.505 56.0783H756.488V63.422H721.505V56.0783Z" fill="#FF81B0"/>
<path d="M779.02 82.7828L747.506 17.0909H770.605C775.969 17.0909 780.353 18.0589 783.757 19.995C787.185 21.9089 789.721 24.5014 791.368 27.7727C793.015 31.044 825.352 32.0219 825.352 36.0499C825.352 40.0778 824.529 43.7385 822.882 47.0321C821.258 50.3257 818.743 52.9516 815.338 54.9099C811.933 56.846 807.571 57.8141 802.253 57.8141H785.696V50.4703H801.986C805.658 50.4703 808.606 49.8361 810.832 48.5676C813.057 47.2991 814.67 45.5856 815.672 43.427C816.696 41.2461 817.207 38.7871 817.207 36.0499C817.207 33.3126 785.182 33.5365 784.158 31.3778C783.157 29.2192 781.532 27.5279 779.284 26.304C777.037 25.0578 774.055 24.4347 770.338 24.4347H755.784L787.298 82.7828H779.02Z" fill="#FF81B0"/>
<path d="M807.174 17.0909H815.319L846.833 68.2288H847.5L853.373 17.0909H861.384L892.898 82.7828H884.62L853.106 31.7784H852.438L846.699 82.7828H838.688L807.174 17.0909Z" fill="#FF81B0"/>
<path d="M877.949 17.0909H886.094L917.608 68.2288H918.276L924.148 17.0909H932.16L963.673 82.7828H955.395L923.881 31.7784H923.214L917.475 82.7828H909.463L877.949 17.0909ZM911.597 0H918.941C918.941 3.60512 917.695 6.55374 915.202 8.84588C912.71 11.138 909.327 12.2841 905.055 12.2841C900.849 12.2841 897.499 11.138 895.007 8.84588C892.537 6.55374 891.302 3.60512 891.302 0H898.645C898.645 1.7358 899.124 3.26018 900.081 4.57315C901.06 5.88613 902.718 6.54261 905.055 6.54261C907.391 6.54261 909.06 5.88613 910.062 4.57315C911.085 3.26018 911.597 1.7358 911.597 0Z" fill="#FF81B0"/>
</svg>
