<svg width="1091" height="115" viewBox="0 0 1091 115" fill="none" xmlns="http://www.w3.org/2000/svg">
<path d="M64.8438 24.2727V97H53.9062V33.6477H19.6733V97H8.7358V24.2727H64.8438ZM144.798 60.6364C144.798 68.4015 143.377 75.0777 140.536 80.6648C137.695 86.2282 133.801 90.5133 128.853 93.5199C123.929 96.5028 118.33 97.9943 112.056 97.9943C105.759 97.9943 100.136 96.5028 95.1882 93.5199C90.264 90.5133 86.3814 86.2164 83.5405 80.6293C80.6996 75.0421 79.2791 68.3778 79.2791 60.6364C79.2791 52.8712 80.6996 46.2069 83.5405 40.6435C86.3814 35.0563 90.264 30.7713 95.1882 27.7884C100.136 24.7817 105.759 23.2784 112.056 23.2784C118.33 23.2784 123.929 24.7817 128.853 27.7884C133.801 30.7713 137.695 35.0563 140.536 40.6435C143.377 46.2069 144.798 52.8712 144.798 60.6364ZM133.931 60.6364C133.931 54.7178 132.972 49.7344 131.055 45.6861C129.161 41.6141 126.557 38.5365 123.242 36.4531C119.951 34.3461 116.223 33.2926 112.056 33.2926C107.866 33.2926 104.125 34.3461 100.835 36.4531C97.5438 38.5365 94.9396 41.6141 93.022 45.6861C91.1281 49.7344 90.1811 54.7178 90.1811 60.6364C90.1811 66.5549 91.1281 71.5502 93.022 75.6222C94.9396 79.6705 97.5438 82.7481 100.835 84.8551C104.125 86.9384 107.866 87.9801 112.056 87.9801C116.223 87.9801 119.951 86.9384 123.242 84.8551C126.557 82.7481 129.161 79.6705 131.055 75.6222C132.972 71.5502 133.931 66.5549 133.931 60.6364ZM158.478 97V24.2727H184.402C190.06 24.2727 194.747 25.3026 198.464 27.3622C202.181 29.4219 204.963 32.2391 206.809 35.8139C208.656 39.3651 209.579 43.366 209.579 47.8168C209.579 52.2912 208.644 56.3158 206.774 59.8906C204.927 63.4418 202.134 66.259 198.393 68.3423C194.676 70.402 190.001 71.4318 184.366 71.4318H166.539V62.1278H183.372C186.947 62.1278 189.847 61.5123 192.072 60.2812C194.297 59.0265 195.931 57.322 196.973 55.1676C198.014 53.0133 198.535 50.563 198.535 47.8168C198.535 45.0705 198.014 42.6321 196.973 40.5014C195.931 38.3707 194.286 36.7017 192.037 35.4943C189.811 34.2869 186.876 33.6832 183.23 33.6832H169.451V97H158.478ZM222.443 97V24.2727H249.077C254.238 24.2727 258.511 25.125 261.896 26.8295C265.282 28.5104 267.815 30.795 269.496 33.6832C271.177 36.5478 272.017 39.7794 272.017 43.3778C272.017 46.4081 271.461 48.965 270.348 51.0483C269.235 53.108 267.744 54.7651 265.874 56.0199C264.027 57.2509 261.991 58.1506 259.766 58.7188V59.429C262.18 59.5473 264.536 60.3286 266.832 61.7727C269.152 63.1932 271.07 65.2173 272.585 67.8452C274.1 70.473 274.858 73.669 274.858 77.4332C274.858 81.1501 273.982 84.4882 272.23 87.4474C270.502 90.383 267.827 92.715 264.205 94.4432C260.582 96.1477 255.954 97 250.32 97H222.443ZM233.416 87.5895H249.254C254.51 87.5895 258.274 86.5715 260.547 84.5355C262.82 82.4995 263.956 79.9545 263.956 76.9006C263.956 74.6042 263.376 72.4972 262.216 70.5795C261.056 68.6619 259.399 67.1349 257.244 65.9986C255.114 64.8622 252.58 64.294 249.645 64.294H233.416V87.5895ZM233.416 55.7358H248.118C250.58 55.7358 252.794 55.2623 254.759 54.3153C256.747 53.3684 258.321 52.0426 259.482 50.3381C260.665 48.6098 261.257 46.5739 261.257 44.2301C261.257 41.2235 260.204 38.7022 258.097 36.6662C255.99 34.6302 252.758 33.6122 248.402 33.6122H233.416V55.7358ZM294.016 97H282.369L308.54 24.2727H321.218L347.39 97H335.742L315.181 37.483H314.613L294.016 97ZM295.969 68.5199H333.754V77.7528H295.969V68.5199ZM352.388 97V87.483L354.519 87.4119C357.407 87.3409 359.68 86.3584 361.337 84.4645C363.018 82.5705 364.237 79.5166 364.995 75.3026C365.776 71.0885 366.297 65.4659 366.557 58.4347L367.8 24.2727H413.787V97H402.956V33.5767H378.134L376.998 61.3466C376.69 69.1354 375.909 75.6813 374.654 80.9844C373.399 86.2637 371.268 90.2528 368.262 92.9517C365.279 95.6506 361.029 97 355.513 97H352.388ZM429.767 24.2727H440.634V77.6818H441.309L478.311 24.2727H488.468V97H477.495V43.6619H476.82L439.888 97H429.767V24.2727ZM591.344 47.9233H580.265C579.838 45.5559 579.045 43.4725 577.885 41.6733C576.725 39.8741 575.305 38.3471 573.624 37.0923C571.943 35.8376 570.061 34.8906 567.978 34.2514C565.918 33.6122 563.728 33.2926 561.408 33.2926C557.218 33.2926 553.465 34.3461 550.151 36.4531C546.86 38.5601 544.256 41.6496 542.338 45.7216C540.444 49.7936 539.498 54.7652 539.498 60.6364C539.498 66.5549 540.444 71.5502 542.338 75.6222C544.256 79.6941 546.872 82.7718 550.186 84.8551C553.501 86.9384 557.23 87.9801 561.373 87.9801C563.669 87.9801 565.847 87.6723 567.907 87.0568C569.99 86.4176 571.872 85.4825 573.553 84.2514C575.234 83.0204 576.654 81.517 577.814 79.7415C578.998 77.9422 579.815 75.8826 580.265 73.5625L591.344 73.598C590.752 77.1728 589.604 80.4635 587.9 83.4702C586.219 86.4531 584.052 89.0336 581.401 91.2116C578.773 93.366 575.766 95.035 572.381 96.2188C568.996 97.4025 565.302 97.9943 561.301 97.9943C555.004 97.9943 549.393 96.5028 544.469 93.5199C539.545 90.5133 535.662 86.2164 532.821 80.6293C530.004 75.0421 528.596 68.3778 528.596 60.6364C528.596 52.8712 530.016 46.2069 532.857 40.6435C535.698 35.0563 539.58 30.7713 544.505 27.7884C549.429 24.7817 555.028 23.2784 561.301 23.2784C565.16 23.2784 568.759 23.8348 572.097 24.9474C575.459 26.0365 578.477 27.6463 581.152 29.777C583.828 31.884 586.041 34.4645 587.793 37.5185C589.545 40.5488 590.729 44.017 591.344 47.9233ZM668.999 87.3054L668.04 114.188H657.102V97H651.989V87.3054H668.999ZM604.474 97V24.2727H614.986V87.483H650.071V24.2727H660.618V97H604.474ZM681.037 97V24.2727H726.634V33.7188H692.01V55.8778H724.254V65.2884H692.01V87.554H727.06V97H681.037ZM741.291 97V24.2727H752.264V55.8778H788.521V24.2727H799.529V97H788.521V65.2884H752.264V97H741.291ZM821.653 97H810.005L836.177 24.2727H848.855L875.027 97H863.379L842.818 37.483H842.25L821.653 97ZM823.606 68.5199H861.39V77.7528H823.606V68.5199ZM885.529 97V24.2727H911.452C917.111 24.2727 921.798 25.3026 925.515 27.3622C929.232 29.4219 932.013 32.2391 933.86 35.8139C935.707 39.3651 936.63 43.366 936.63 47.8168C936.63 52.2912 935.695 56.3158 933.825 59.8906C931.978 63.4418 929.184 66.259 925.444 68.3423C921.727 70.402 917.051 71.4318 911.417 71.4318H893.59V62.1278H910.423C913.997 62.1278 916.897 61.5123 919.123 60.2812C921.348 59.0265 922.982 57.322 924.023 55.1676C925.065 53.0133 925.586 50.563 925.586 47.8168C925.586 45.0705 925.065 42.6321 924.023 40.5014C922.982 38.3707 921.336 36.7017 919.087 35.4943C916.862 34.2869 913.926 33.6832 910.281 33.6832H896.502V97H885.529ZM949.494 24.2727H960.36V77.6818H961.035L998.038 24.2727H1008.19V97H997.221V43.6619H996.547L959.615 97H949.494V24.2727ZM1024.2 24.2727H1035.07V77.6818H1035.74L1072.75 24.2727H1082.9V97H1071.93V43.6619H1071.25L1034.32 97H1024.2V24.2727ZM1060.53 5.80681H1069.26C1069.26 9.80776 1067.84 13.063 1065 15.5724C1062.19 18.0582 1058.37 19.3011 1053.57 19.3011C1048.79 19.3011 1044.99 18.0582 1042.17 15.5724C1039.35 13.063 1037.94 9.80776 1037.94 5.80681H1046.64C1046.64 7.58238 1047.17 9.15672 1048.21 10.5298C1049.25 11.8793 1051.04 12.554 1053.57 12.554C1056.05 12.554 1057.83 11.8793 1058.9 10.5298C1059.98 9.1804 1060.53 7.60606 1060.53 5.80681Z" fill="#FF81B0"/>
</svg>
