<svg width="1002" height="109" viewBox="0 0 1002 109" fill="none" xmlns="http://www.w3.org/2000/svg">
<path d="M8.78906 27H23.4375L48.9063 89.1875H49.8438L75.3125 27H89.9609V107H78.4766V49.1094H77.7344L54.1406 106.883H44.6094L21.0156 49.0703H20.2734V107H8.78906V27ZM114.268 107H101.455L130.244 27H144.189L172.979 107H160.166L137.549 41.5312H136.924L114.268 107ZM116.416 75.6719H157.979V85.8281H116.416V75.6719ZM178.477 107V96.5312L180.82 96.4531C183.997 96.375 186.497 95.2943 188.32 93.2109C190.169 91.1276 191.51 87.7682 192.344 83.1328C193.203 78.4974 193.776 72.3125 194.063 64.5781L195.43 27H246.016V107H234.102V37.2344H206.797L205.547 67.7812C205.208 76.349 204.349 83.5495 202.969 89.3828C201.589 95.1901 199.245 99.5781 195.938 102.547C192.656 105.516 187.982 107 181.914 107H178.477ZM333.086 67C333.086 75.5417 331.523 82.8854 328.398 89.0312C325.273 95.151 320.99 99.8646 315.547 103.172C310.13 106.453 303.971 108.094 297.07 108.094C290.143 108.094 283.958 106.453 278.516 103.172C273.099 99.8646 268.828 95.138 265.703 88.9922C262.578 82.8464 261.016 75.5156 261.016 67C261.016 58.4583 262.578 51.1276 265.703 45.0078C268.828 38.862 273.099 34.1484 278.516 30.8672C283.958 27.5599 290.143 25.9062 297.07 25.9062C303.971 25.9062 310.13 27.5599 315.547 30.8672C320.99 34.1484 325.273 38.862 328.398 45.0078C331.523 51.1276 333.086 58.4583 333.086 67ZM321.133 67C321.133 60.4896 320.078 55.0078 317.969 50.5547C315.885 46.0755 313.021 42.6901 309.375 40.3984C305.755 38.0807 301.654 36.9219 297.07 36.9219C292.461 36.9219 288.346 38.0807 284.727 40.3984C281.107 42.6901 278.242 46.0755 276.133 50.5547C274.049 55.0078 273.008 60.4896 273.008 67C273.008 73.5104 274.049 79.0052 276.133 83.4844C278.242 87.9375 281.107 91.3229 284.727 93.6406C288.346 95.9323 292.461 97.0781 297.07 97.0781C301.654 97.0781 305.755 95.9323 309.375 93.6406C313.021 91.3229 315.885 87.9375 317.969 83.4844C320.078 79.0052 321.133 73.5104 321.133 67ZM377.246 107V27H406.543C412.22 27 416.921 27.9375 420.645 29.8125C424.368 31.6615 427.155 34.1745 429.004 37.3516C430.853 40.5026 431.777 44.0573 431.777 48.0156C431.777 51.349 431.165 54.1615 429.941 56.4531C428.717 58.7187 427.077 60.5417 425.02 61.9219C422.988 63.276 420.749 64.2656 418.301 64.8906V65.6719C420.957 65.8021 423.548 66.6615 426.074 68.25C428.626 69.8125 430.736 72.0391 432.402 74.9297C434.069 77.8203 434.902 81.3359 434.902 85.4766C434.902 89.5651 433.939 93.237 432.012 96.4922C430.111 99.7214 427.168 102.286 423.184 104.187C419.199 106.062 414.108 107 407.91 107H377.246ZM389.316 96.6484H406.738C412.52 96.6484 416.66 95.5286 419.16 93.2891C421.66 91.0495 422.91 88.25 422.91 84.8906C422.91 82.3646 422.272 80.0469 420.996 77.9375C419.72 75.8281 417.897 74.1484 415.527 72.8984C413.184 71.6484 410.397 71.0234 407.168 71.0234H389.316V96.6484ZM389.316 61.6094H405.488C408.197 61.6094 410.632 61.0885 412.793 60.0469C414.98 59.0052 416.712 57.5469 417.988 55.6719C419.29 53.7708 419.941 51.5312 419.941 48.9531C419.941 45.6458 418.783 42.8724 416.465 40.6328C414.147 38.3932 410.592 37.2734 405.801 37.2734H389.316V61.6094ZM449.219 107V27H477.734C483.958 27 489.115 28.1328 493.203 30.3984C497.292 32.6641 500.352 35.763 502.383 39.6953C504.414 43.6016 505.43 48.0026 505.43 52.8984C505.43 57.8203 504.401 62.2474 502.344 66.1797C500.313 70.0859 497.24 73.1849 493.125 75.4766C489.036 77.7422 483.893 78.875 477.695 78.875H458.086V68.6406H476.602C480.534 68.6406 483.724 67.9635 486.172 66.6094C488.62 65.2292 490.417 63.3542 491.562 60.9844C492.708 58.6146 493.281 55.9193 493.281 52.8984C493.281 49.8776 492.708 47.1953 491.562 44.8516C490.417 42.5078 488.607 40.6719 486.133 39.3438C483.685 38.0156 480.456 37.3516 476.445 37.3516H461.289V107H449.219ZM519.58 107V27H569.736V37.3906H531.65V61.7656H567.119V72.1172H531.65V96.6094H570.205V107H519.58ZM585.859 27H600.508L625.977 89.1875H626.914L652.383 27H667.031V107H655.547V49.1094H654.805L631.211 106.883H621.68L598.086 49.0703H597.344V107H585.859V27ZM684.58 107V27H734.736V37.3906H696.65V61.7656H732.119V72.1172H696.65V96.6094H735.205V107H684.58ZM750.859 107V27H762.93V61.7656H802.813V27H814.922V107H802.813V72.1172H762.93V107H750.859ZM832.5 27H844.453V85.75H845.195L885.898 27H897.07V107H885V48.3281H884.258L843.633 107H832.5V27Z" fill="#FF81B0"/>
</svg>
