<svg width="379" height="128" viewBox="0 0 379 128" fill="none" xmlns="http://www.w3.org/2000/svg">
<path d="M4.23473 12.4545H11.2926L23.5639 42.4176H24.0156L36.2869 12.4545H43.3448V51H37.8114V23.1072H37.4538L26.0859 50.9435H21.4936L10.1257 23.0884H9.76811V51H4.23473V12.4545ZM55.8843 28.0007H66.2735C69.1343 28.0007 71.5685 28.465 73.5761 29.3935C75.5837 30.322 77.1144 31.6332 78.1684 33.3271C79.2349 35.021 79.7619 37.016 79.7494 39.3121C79.7619 41.6083 79.2349 43.6347 78.1684 45.3913C77.1144 47.148 75.5837 48.5219 73.5761 49.5131C71.5685 50.5044 69.1343 51 66.2735 51H51.8378V12.4545H57.6723V46.1065H66.2735C67.9423 46.1065 69.3476 45.7803 70.4894 45.1278C71.6438 44.4754 72.5158 43.6284 73.1056 42.587C73.7078 41.5456 74.009 40.4289 74.009 39.2369C74.009 37.5053 73.344 36.0185 72.0139 34.7763C70.6839 33.5215 68.7704 32.8942 66.2735 32.8942H55.8843V28.0007ZM89.1411 12.4545V51H83.3066V12.4545H89.1411ZM4.23473 115V76.4545H10.0504V93.2053H29.2667V76.4545H35.1012V115H29.2667V98.1928H10.0504V115H4.23473ZM43.5707 115V76.4545H67.7369V81.4609H49.3864V93.2053H66.4759V98.1928H49.3864V109.994H67.9627V115H43.5707ZM92.2607 115.527V110.408H94.5756C95.5418 110.408 96.3385 110.245 96.9659 109.918C97.6058 109.592 98.1265 109.153 98.5281 108.601C98.9421 108.036 99.2872 107.421 99.5632 106.756L100.109 105.382L86.5579 76.4545H92.7312L102.838 98.7386L111.835 76.4545H117.933L104.607 108.319C104.043 109.598 103.39 110.784 102.65 111.876C101.922 112.967 100.95 113.852 99.7326 114.529C98.5155 115.194 96.9032 115.527 94.8956 115.527H92.2607ZM153.481 88.9893H147.609C147.383 87.7346 146.962 86.6304 146.348 85.6768C145.733 84.7232 144.98 83.9139 144.089 83.2489C143.198 82.5839 142.201 82.082 141.097 81.7433C140.005 81.4045 138.844 81.2351 137.615 81.2351C135.394 81.2351 133.405 81.7934 131.648 82.9102C129.904 84.0269 128.524 85.6643 127.508 87.8224C126.504 89.9806 126.002 92.6155 126.002 95.7273C126.002 98.8641 126.504 101.512 127.508 103.67C128.524 105.828 129.911 107.459 131.667 108.563C133.424 109.667 135.4 110.219 137.596 110.219C138.813 110.219 139.967 110.056 141.059 109.73C142.163 109.391 143.161 108.896 144.051 108.243C144.942 107.591 145.695 106.794 146.31 105.853C146.937 104.899 147.37 103.808 147.609 102.578L153.481 102.597C153.167 104.492 152.559 106.236 151.655 107.829C150.764 109.41 149.616 110.778 148.211 111.932C146.818 113.074 145.225 113.959 143.43 114.586C141.636 115.213 139.679 115.527 137.558 115.527C134.221 115.527 131.247 114.737 128.637 113.156C126.027 111.562 123.969 109.285 122.464 106.324C120.971 103.362 120.224 99.8303 120.224 95.7273C120.224 91.6117 120.977 88.0797 122.483 85.131C123.988 82.1699 126.046 79.8988 128.656 78.3178C131.266 76.7243 134.233 75.9276 137.558 75.9276C139.603 75.9276 141.511 76.2224 143.28 76.8121C145.061 77.3893 146.661 78.2425 148.079 79.3718C149.497 80.4885 150.67 81.8562 151.599 83.4748C152.527 85.0808 153.155 86.919 153.481 88.9893ZM190.572 76.4545V115H184.775V81.4233H166.632V115H160.835V76.4545H190.572ZM199.465 115V76.4545H223.631V81.4609H205.281V93.2053H222.37V98.1928H205.281V109.994H223.857V115H199.465ZM231.4 115V76.4545H245.516C248.251 76.4545 250.516 76.9062 252.31 77.8097C254.104 78.7005 255.447 79.9113 256.338 81.4421C257.228 82.9603 257.674 84.6731 257.674 86.5803C257.674 88.1863 257.379 89.5414 256.789 90.6456C256.2 91.7372 255.409 92.6155 254.418 93.2805C253.439 93.933 252.36 94.4098 251.181 94.7109V95.0874C252.46 95.1501 253.709 95.5642 254.926 96.3295C256.156 97.0824 257.172 98.1552 257.975 99.5479C258.778 100.941 259.18 102.635 259.18 104.63C259.18 106.6 258.715 108.369 257.787 109.937C256.871 111.493 255.453 112.729 253.533 113.645C251.614 114.548 249.161 115 246.174 115H231.4ZM237.215 110.012H245.61C248.395 110.012 250.39 109.473 251.595 108.394C252.799 107.315 253.402 105.966 253.402 104.347C253.402 103.13 253.094 102.013 252.479 100.997C251.864 99.9808 250.986 99.1715 249.844 98.5692C248.715 97.967 247.373 97.6658 245.817 97.6658H237.215V110.012ZM237.215 93.13H245.007C246.312 93.13 247.485 92.879 248.527 92.3771C249.581 91.8752 250.415 91.1726 251.03 90.2692C251.657 89.3532 251.971 88.2741 251.971 87.032C251.971 85.4384 251.413 84.1022 250.296 83.0231C249.179 81.944 247.467 81.4045 245.158 81.4045H237.215V93.13ZM269.334 115H263.16L277.031 76.4545H283.75L297.622 115H291.448L280.551 83.456H280.25L269.334 115ZM270.369 99.9055H290.394V104.799H270.369V99.9055ZM303.188 115V76.4545H327.354V81.4609H309.004V93.2053H326.093V98.1928H309.004V109.994H327.58V115H303.188ZM335.122 76.4545H342.18L354.452 106.418H354.903L367.175 76.4545H374.233V115H368.699V87.1072H368.342L356.974 114.944H352.381L341.013 87.0884H340.656V115H335.122V76.4545Z" fill="#FF81B0"/>
</svg>
