<svg width="329" height="114" viewBox="0 0 329 114" fill="none" xmlns="http://www.w3.org/2000/svg">
<path d="M14.3045 0.574193H22.0061L21.0921 32.4636H21.585L49.28 0.574193H56.9816L42.6772 41.8147H36.6391L50.9436 12.1811H50.5534L23.8442 41.7532H18.833L20.7327 12.1606H20.3425L6.03806 41.8147H0L14.3045 0.574193Z" fill="#FF81B0"/>
<path d="M55.4567 41.8147H48.7204L78.1611 0.574193H85.493L86.3248 41.8147H79.5884L82.0016 8.20274H81.673L55.4567 41.8147ZM56.5863 25.3682H78.4383V30.7H56.5863V25.3682Z" fill="#FF81B0"/>
<path d="M89.2155 41.8147V36.3189L90.4477 36.2779C92.1181 36.2368 93.4325 35.6695 94.3909 34.5758C95.3631 33.4821 96.0682 31.7185 96.5063 29.285C96.9581 26.8515 97.2594 23.6046 97.41 19.5443L112.433 0.574193H139.029L124.725 41.8147H118.461L132.765 5.94699H118.41L103.448 21.2258C103.27 25.7237 102.818 29.5038 102.093 32.5661C101.367 35.6148 100.135 37.9184 98.3958 39.4769C96.6706 41.0355 94.2129 41.8147 91.0228 41.8147H89.2155Z" fill="#FF81B0"/>
<path d="M170.503 20.8157C170.503 25.2999 169.682 29.1551 168.039 32.3816C166.396 35.5943 164.144 38.0688 161.282 39.805C158.434 41.5276 155.196 42.3889 151.568 42.3889C147.926 42.3889 144.674 41.5276 141.812 39.805C138.964 38.0688 136.719 35.5875 135.076 32.3611C133.433 29.1346 132.611 25.2862 132.611 20.8157C132.611 16.3315 147.737 13.2406 149.38 10.0279C151.023 6.80144 153.269 4.32695 156.117 2.60437C158.978 0.868124 162.23 0 165.872 0C169.5 0 172.739 0.868124 175.586 2.60437C178.448 4.32695 180.7 6.80144 182.343 10.0279C183.986 13.2406 170.503 16.3315 170.503 20.8157ZM164.219 20.8157C164.219 17.3979 177.969 15.2776 176.86 12.9398C175.764 10.5884 174.258 8.81112 172.341 7.60805C170.438 6.39131 168.282 5.78294 165.872 5.78294C163.449 5.78294 161.285 6.39131 159.382 7.60805C157.479 8.81112 155.973 10.5884 154.864 12.9398C153.769 15.2776 138.917 17.3979 138.917 20.8157C138.917 24.2335 139.464 27.1181 140.56 29.4696C141.669 31.8074 143.175 33.5846 145.078 34.8014C146.981 36.0044 149.144 36.606 151.568 36.606C153.977 36.606 156.134 36.0044 158.037 34.8014C159.954 33.5846 161.46 31.8074 162.555 29.4696C163.664 27.1181 164.219 24.2335 164.219 20.8157Z" fill="#FF81B0"/>
<path d="M0 112L16.122 70.5761H31.5253C34.5101 70.5761 36.9814 71.0683 38.9393 72.0526C40.8973 73.0233 42.3623 74.3426 43.3344 76.0105C44.3065 77.6647 44.7926 79.5308 44.7926 81.6088C44.7926 83.3587 28.3488 84.2611 27.7053 85.4641C27.0617 86.6535 26.1992 87.6105 25.1175 88.3351C24.0496 89.046 22.8721 89.5655 21.585 89.8936V90.3037C22.9816 90.3721 24.3439 90.8232 25.672 91.6572C27.0138 92.4775 28.1229 93.6464 28.9991 95.1639C29.8754 96.6814 30.3135 98.527 30.3135 100.701C30.3135 102.847 29.8069 104.775 28.7938 106.484C27.7943 108.179 26.2471 109.525 24.1523 110.523C22.0574 111.508 19.3807 112 16.122 112H0ZM6.34613 106.566H15.5059C18.5455 106.566 20.7225 105.978 22.0369 104.802C23.3513 103.626 24.0085 102.157 24.0085 100.393C24.0085 99.067 23.673 97.8503 23.0021 96.7429C22.3312 95.6355 21.3728 94.7537 20.1269 94.0975C18.8946 93.4413 17.4296 93.1132 15.7318 93.1132H6.34613V106.566ZM6.34613 88.171H14.8487C16.2726 88.171 17.5528 87.8976 18.6892 87.3507C19.8393 86.8039 20.7498 86.0383 21.4207 85.054C22.1053 84.056 22.4476 82.8803 22.4476 81.5268C22.4476 79.7905 37.9604 78.9088 36.7418 77.733C35.5232 76.5573 33.6543 75.9694 31.135 75.9694H22.4682L6.34613 88.171Z" fill="#FF81B0"/>
<path d="M37.8406 112L53.9626 70.5761H68.9551C72.2274 70.5761 74.9384 71.1708 77.088 72.3602C79.2376 73.5496 80.8464 75.1765 81.9143 77.2409C82.9823 79.2916 67.3942 81.0278 67.3942 83.598C67.3942 86.1819 66.8534 88.506 65.7718 90.5703C64.7038 92.621 63.0882 94.2479 60.9249 95.451C58.7753 96.6404 56.0711 97.2351 52.8125 97.2351H42.5026V91.8623H52.2375C54.3049 91.8623 55.9821 91.5068 57.2692 90.7959C58.5562 90.0713 59.5009 89.087 60.1034 87.8429C60.7058 86.5988 61.007 85.1839 61.007 83.598C61.007 82.0121 76.8278 81.1782 76.2254 79.9478C75.623 78.7174 74.6714 77.7535 73.3707 77.0563C72.0837 76.3591 70.3859 76.0105 68.2773 76.0105H60.3087L44.1867 112H37.8406Z" fill="#FF81B0"/>
<path d="M121.567 70.5761H129.269L126.537 102.649H127.03L156.543 70.5761H164.245L148.123 112H142.084V81.6088H141.694L129.289 111.938H124.278L111.874 81.5883H111.483V112H105.445L121.567 70.5761Z" fill="#FF81B0"/>
<path d="M157.349 112L173.471 70.5761H199.841V76.031H179.817L163.695 88.253H182.343V93.6874H163.695V106.545H183.966V112H157.349Z" fill="#FF81B0"/>
<path d="M192.196 112L208.318 70.5761H214.664L198.542 88.253H219.511L235.633 70.5761H242L225.878 112H219.511V93.6874H198.542V112H192.196Z" fill="#FF81B0"/>
<path d="M290.253 70H297.316L278.063 100.942H278.502L321.807 70H328.408L309.155 113.499H302.023V78.8295H301.584L277.578 113.499H271L290.253 70Z" fill="#FF81B0"/>
</svg>
