<svg width="852" height="66" viewBox="0 0 852 66" fill="none" xmlns="http://www.w3.org/2000/svg">
<path d="M-6.10352e-05 2.03054H9.88062L54.977 52.8657H55.7782L57.1477 2.03054H67.0284L88.8918 64.4822H81.1475V12.5418H80.4799L59.1162 64.4822H51.639L30.2753 12.5418H29.6077V64.4822H21.8634L-6.10352e-05 2.03054Z" fill="#FF81B0"/>
<path d="M111.632 24.8259H131.127C136.023 24.8259 140.151 25.627 143.511 27.2293C146.894 28.8315 149.453 31.0904 151.189 34.0056C152.947 36.9209 153.826 40.3591 153.826 44.3202C153.826 48.2814 152.947 51.7753 151.189 54.8018C149.453 57.8283 146.894 60.1983 143.511 61.9119C140.151 63.6254 136.023 64.4822 131.127 64.4822H105.49L83.6269 2.03054H91.9053L113.769 57.272H131.127C134.242 57.272 136.879 56.6488 139.038 55.4026C141.219 54.1342 142.866 52.5096 143.978 50.5291C145.113 48.5262 145.681 46.4121 145.681 44.1867C145.681 40.9154 144.423 38.1003 141.909 35.7414C139.394 33.3603 135.8 32.1697 131.127 32.1697H111.632V24.8259ZM146.917 2.03054L168.78 64.4822H160.502L138.638 2.03054H146.917Z" fill="#FF81B0"/>
<path d="M281.373 64.4822L259.51 2.03054H300.768L322.632 3.46222H289.652V26.5617H320.495V33.9055H289.652V57.1384H323.166V64.4822H281.373Z" fill="#FF81B0"/>
<path d="M367.595 65.4168V57.6725H371.868C373.515 57.6725 374.895 57.3498 376.007 56.7045C377.142 56.0591 378.077 55.2246 378.811 54.2009C379.568 53.1773 380.191 52.1091 380.681 50.9964L381.749 48.4595L336.252 2.03054H345.198L385.888 38.5788L381.249 2.03054H390.062L388.292 53.3998C387.357 55.5362 386.289 57.5168 385.087 59.3416C383.908 61.1664 382.294 62.6351 380.247 63.7478C378.222 64.8605 375.473 65.4168 372.002 65.4168H367.595Z" fill="#FF81B0"/>
<path d="M474.447 17.4821H466.169C465.679 15.1009 464.822 13.0091 463.598 11.2065C462.397 9.40398 460.928 7.89072 459.192 6.66676C457.479 5.42055 455.576 4.48589 453.484 3.86279C451.392 3.23968 449.211 2.92813 446.941 2.92813C442.802 2.92813 439.052 3.97405 435.692 6.06591C432.354 8.15777 429.695 11.2399 427.714 15.3124C425.756 19.3848 424.777 24.3809 424.777 30.3004C424.777 36.2199 425.756 41.2158 427.714 45.2883C429.695 49.3607 432.354 52.4429 435.692 54.5347C439.052 56.6266 442.802 57.6725 446.941 57.6725C449.211 57.6725 451.392 57.361 453.484 56.7379C455.576 56.1148 457.479 55.1912 459.192 53.9673C460.928 52.7211 462.397 51.1967 463.598 49.3941C464.822 47.5693 465.679 45.4775 466.169 43.1185H474.447C473.824 46.6124 472.689 49.739 471.042 52.4985C469.395 55.258 467.348 57.6058 464.9 59.5418C462.452 61.4557 459.704 62.9133 456.655 63.9147C453.629 64.9161 450.391 65.4168 446.941 65.4168C441.111 65.4168 435.926 63.9926 431.386 61.1441C426.846 58.2956 423.274 54.2454 420.671 48.9935C418.067 43.7417 416.765 37.5106 416.765 30.3004C416.765 23.0901 418.067 16.859 420.671 11.6071C423.274 6.35521 404.983 8.2171 409.522 5.36861C414.062 2.52012 419.247 1.09588 425.078 1.09588C428.527 1.09588 431.765 1.59659 434.792 2.59801C437.84 3.59943 462.452 -0.843891 464.9 1.09219C467.348 3.00601 469.395 5.34266 471.042 8.10213C472.689 10.8393 473.824 13.966 474.447 17.4821Z" fill="#FF81B0"/>
<path d="M517.1 2.03054L538.964 64.4822H530.685V3.46222H496.236V64.4822H487.958L466.094 2.03054H517.1Z" fill="#FF81B0"/>
<path d="M555.662 64.4822L533.799 2.03054H575.057L596.921 3.46222H563.941V26.5617H594.784V33.9055H563.941V57.1384H597.455V64.4822H555.662Z" fill="#FF81B0"/>
<path d="M667.521 64.4822H658.842L662.081 2.03054H670.626L717.592 64.4822H708.913L688.484 6.93381H687.95L667.521 64.4822ZM670.725 37.7776H705.708V45.1214H670.725V37.7776Z" fill="#FF81B0"/>
<path d="M728.24 64.4822L706.377 2.03054H747.635L769.499 3.46222H736.519V26.5617H767.362V33.9055H736.519V57.1384H770.033V64.4822H728.24Z" fill="#FF81B0"/>
<path d="M762.557 2.03054H772.437L817.534 52.8657H818.335L819.704 2.03054H829.585L851.448 64.4822H843.704V12.5418H843.036L821.673 64.4822H814.196L792.832 12.5418H792.164V64.4822H784.42L762.557 2.03054Z" fill="#FF81B0"/>
</svg>
