<svg width="99" height="112" viewBox="0 0 99 112" fill="none" xmlns="http://www.w3.org/2000/svg">
<path d="M85.5673 54.9022L79.7894 52.1275C80.6845 49.3881 81.173 46.8385 81.255 44.4787C81.3525 42.1263 81.1134 39.9974 80.5376 38.0918C79.9889 36.1696 79.1464 34.521 78.0101 33.146C76.8737 31.7709 66.9995 23.3569 65.4153 22.5961C62.5264 21.2088 67.8799 28.4293 64.4481 29.5655C61.0318 30.7091 57.5749 33.1513 54.0774 36.892C50.5954 40.6402 26.9048 41.2354 23.8302 47.6377C20.7557 54.04 18.8442 59.7716 18.0958 64.8325C17.363 69.9009 17.6182 74.1257 18.8615 77.5069C20.1203 80.8957 22.1942 83.2837 25.0831 84.671C26.6674 85.4318 28.3513 85.8258 30.1349 85.853C31.9185 85.8802 33.7262 85.5191 35.5578 84.7697C37.4166 84.0036 39.2334 82.8473 41.0084 81.3005C42.8104 79.7371 44.4949 77.7618 46.0618 75.3746L51.8396 78.1493C49.59 81.7193 47.174 84.7205 44.5914 87.153C42.0088 89.5856 39.3605 91.4385 36.6464 92.712C33.9439 93.9615 31.2686 94.6168 28.6206 94.678C25.9882 94.7467 23.4682 94.203 21.0608 93.0469C16.9914 91.0927 14.1123 87.8144 12.4233 83.212C10.7342 78.6096 10.345 73.0321 11.2555 66.4792C12.1661 59.9264 14.4938 52.7508 18.2388 44.9525C21.9837 37.1543 46.541 35.3314 51.086 30.5239C55.6311 25.7164 51.7137 15.1869 56.3617 13.6277C61.0096 12.0685 65.3683 12.266 69.4376 14.2202C71.8451 15.3763 73.8449 17.0031 75.4371 19.1006C77.0448 21.2056 78.2001 23.7153 78.903 26.6297C79.6175 29.5201 88.3467 40.0796 88.0628 43.6161C87.7904 47.1285 86.9586 50.8905 85.5673 54.9022Z" fill="#FF81B0"/>
</svg>
