<svg width="105" height="103" viewBox="0 0 105 103" fill="none" xmlns="http://www.w3.org/2000/svg">
<path d="M-6.993e-05 73.0133L8.70695 50.7551L12.8104 52.3604C14.7223 51.6267 16.7581 50.3322 18.9176 48.4767C21.106 46.6087 23.4056 43.876 25.8164 40.2789C28.256 36.6691 30.8126 31.8745 33.4863 25.8949L66.4874 14.836L104.289 29.6233L60.9328 71.185L68.2692 74.0549L44.8893 90.5733L37.5528 87.7033L58.2574 78.0241L13.3681 60.4642L7.33641 75.8832L-6.993e-05 73.0133ZM22.0121 55.9599L53.5963 68.3151L94.2771 33.5925L70.7755 24.3991L40.8227 28.7649C38.7581 33.3099 36.6771 37.3467 34.5799 40.8753C32.4908 44.3833 30.3917 47.3974 28.2826 49.9178C26.1817 52.4175 24.0915 54.4315 22.0121 55.9599Z" fill="#FF81B0"/>
</svg>
