<svg width="633" height="115" viewBox="0 0 633 115" fill="none" xmlns="http://www.w3.org/2000/svg">
<path d="M53.3381 24.2727V33.7188H18.9631V97H7.99006V24.2727H53.3381ZM60.2006 114.578V87.696H64.9947C66.6282 86.3229 68.1552 84.3698 69.5756 81.8366C70.9961 79.3035 72.2035 75.8826 73.1978 71.5739C74.1921 67.2652 74.8787 61.7372 75.2575 54.9901L76.962 24.2727H121.813V87.696H130.051V114.472H119.54V97H70.712V114.578H60.2006ZM77.9208 87.696H111.301V33.7188H86.9052L85.7688 54.9901C85.4611 60.1274 84.9521 64.7438 84.2418 68.8395C83.5553 72.9351 82.6675 76.5573 81.5785 79.706C80.5131 82.831 79.2939 85.4943 77.9208 87.696ZM142.072 97V24.2727H187.669V33.7188H153.045V55.8778H185.289V65.2884H153.045V87.554H188.095V97H142.072ZM274.139 24.2727V33.7188H239.764V97H228.791V24.2727H274.139ZM286.506 97V24.2727H312.429C318.087 24.2727 322.775 25.3026 326.491 27.3622C330.208 29.4219 332.99 32.2391 334.837 35.8139C336.683 39.3651 337.607 43.366 337.607 47.8168C337.607 52.2912 336.671 56.3158 334.801 59.8906C332.955 63.4418 330.161 66.259 326.42 68.3423C322.704 70.402 318.028 71.4318 312.393 71.4318H294.567V62.1278H311.399C314.974 62.1278 317.874 61.5123 320.099 60.2812C322.325 59.0265 323.958 57.322 325 55.1676C326.042 53.0133 326.562 50.563 326.562 47.8168C326.562 45.0705 326.042 42.6321 325 40.5014C323.958 38.3707 322.313 36.7017 320.064 35.4943C317.839 34.2869 314.903 33.6832 311.257 33.6832H297.479V97H286.506ZM350.471 24.2727H361.337V77.6818H362.012L399.015 24.2727H409.171V97H398.198V43.6619H397.523L360.591 97H350.471V24.2727ZM425.178 24.2727H438.494L461.648 80.8068H462.5L485.653 24.2727H498.97V97H488.53V44.3722H487.855L466.406 96.8935H457.741L436.293 44.3366H435.618V97H425.178V24.2727ZM514.924 97V24.2727H560.52V33.7188H525.897V55.8778H558.141V65.2884H525.897V87.554H560.946V97H514.924ZM575.178 97V24.2727H601.101C606.759 24.2727 611.446 25.3026 615.163 27.3622C618.88 29.4219 621.662 32.2391 623.509 35.8139C625.355 39.3651 626.278 43.366 626.278 47.8168C626.278 52.2912 625.343 56.3158 623.473 59.8906C621.626 63.4418 618.833 66.259 615.092 68.3423C611.375 70.402 606.7 71.4318 601.065 71.4318H583.239V62.1278H600.071C603.646 62.1278 606.546 61.5123 608.771 60.2812C610.997 59.0265 612.63 57.322 613.672 55.1676C614.714 53.0133 615.234 50.563 615.234 47.8168C615.234 45.0705 614.714 42.6321 613.672 40.5014C612.63 38.3707 610.985 36.7017 608.736 35.4943C606.51 34.2869 603.575 33.6832 599.929 33.6832H586.151V97H575.178Z" fill="#FF81B0"/>
</svg>
