<svg width="328" height="155" viewBox="0 0 328 155" fill="none" xmlns="http://www.w3.org/2000/svg">
<path d="M4.79403 14.3636H12.7841L26.6761 48.2841H27.1875L41.0795 14.3636H49.0696V58H42.8054V26.4233H42.4006L29.5312 57.9361H24.3324L11.4631 26.402H11.0582V58H4.79403V14.3636ZM62.3278 58H55.3391L71.0423 14.3636H78.6488L94.3519 58H87.3633L75.0266 22.2898H74.6857L62.3278 58ZM63.4996 40.9119H86.1701V46.4517H63.4996V40.9119ZM97.3509 58V52.2898L98.6293 52.2472C100.362 52.2045 101.726 51.6151 102.72 50.4787C103.729 49.3423 104.46 47.5099 104.915 44.9815C105.384 42.4531 105.696 39.0795 105.852 34.8608L106.598 14.3636H134.19V58H127.692V19.946H112.798L112.116 36.608C111.932 41.2812 111.463 45.2088 110.71 48.3906C109.957 51.5582 108.679 53.9517 106.875 55.571C105.085 57.1903 102.536 58 99.2259 58H97.3509ZM181.683 36.1818C181.683 40.8409 180.831 44.8466 179.126 48.1989C177.422 51.5369 175.085 54.108 172.116 55.9119C169.162 57.7017 165.803 58.5966 162.038 58.5966C158.26 58.5966 154.886 57.7017 151.918 55.9119C148.963 54.108 146.634 51.5298 144.929 48.1776C143.224 44.8253 142.372 40.8267 142.372 36.1818C142.372 31.5227 143.224 27.5241 144.929 24.1861C146.634 20.8338 148.963 18.2628 151.918 16.473C154.886 14.669 158.26 13.767 162.038 13.767C165.803 13.767 169.162 14.669 172.116 16.473C175.085 18.2628 177.422 20.8338 179.126 24.1861C180.831 27.5241 181.683 31.5227 181.683 36.1818ZM175.163 36.1818C175.163 32.6307 174.588 29.6406 173.438 27.2116C172.301 24.7685 170.739 22.9219 168.75 21.6719C166.776 20.4077 164.538 19.7756 162.038 19.7756C159.524 19.7756 157.28 20.4077 155.305 21.6719C153.331 22.9219 151.768 24.7685 150.618 27.2116C149.482 29.6406 148.913 32.6307 148.913 36.1818C148.913 39.733 149.482 42.7301 150.618 45.1733C151.768 47.6023 153.331 49.4489 155.305 50.7131C157.28 51.9631 159.524 52.5881 162.038 52.5881C164.538 52.5881 166.776 51.9631 168.75 50.7131C170.739 49.4489 172.301 47.6023 173.438 45.1733C174.588 42.7301 175.163 39.733 175.163 36.1818ZM4.79403 131V87.3636H20.7741C23.8707 87.3636 26.4347 87.875 28.4659 88.8977C30.4972 89.9062 32.017 91.277 33.0256 93.0099C34.0341 94.7287 34.5384 96.6676 34.5384 98.8267C34.5384 100.645 34.2045 102.179 33.5369 103.429C32.8693 104.665 31.9744 105.659 30.8523 106.412C29.7443 107.151 28.5227 107.69 27.1875 108.031V108.457C28.6364 108.528 30.0497 108.997 31.4276 109.864C32.8196 110.716 33.9702 111.93 34.8793 113.507C35.7884 115.084 36.2429 117.001 36.2429 119.26C36.2429 121.49 35.7173 123.493 34.6662 125.268C33.6293 127.03 32.0241 128.429 29.8509 129.466C27.6776 130.489 24.9006 131 21.5199 131H4.79403ZM11.3778 125.354H20.8807C24.0341 125.354 26.2926 124.743 27.6562 123.521C29.0199 122.3 29.7017 120.773 29.7017 118.94C29.7017 117.562 29.3537 116.298 28.6577 115.148C27.9616 113.997 26.9673 113.081 25.6747 112.399C24.3963 111.717 22.8764 111.376 21.1151 111.376H11.3778V125.354ZM11.3778 106.241H20.1989C21.6761 106.241 23.0043 105.957 24.1832 105.389C25.3764 104.821 26.321 104.026 27.017 103.003C27.7273 101.966 28.0824 100.744 28.0824 99.3381C28.0824 97.5341 27.4503 96.0213 26.1861 94.7997C24.9219 93.5781 22.983 92.9673 20.3693 92.9673H11.3778V106.241ZM44.0518 131V87.3636H59.6058C63.0007 87.3636 65.8132 87.9815 68.0433 89.2173C70.2734 90.4531 71.9425 92.1435 73.0504 94.2884C74.1584 96.419 74.7124 98.8196 74.7124 101.49C74.7124 104.175 74.1513 106.589 73.0291 108.734C71.9212 110.865 70.245 112.555 68.0007 113.805C65.7706 115.041 62.9652 115.659 59.5845 115.659H48.8885V110.077H58.9879C61.1328 110.077 62.8729 109.707 64.2081 108.969C65.5433 108.216 66.5234 107.193 67.1484 105.901C67.7734 104.608 68.0859 103.138 68.0859 101.49C68.0859 99.8423 67.7734 98.3793 67.1484 97.1009C66.5234 95.8224 65.5362 94.821 64.1868 94.0966C62.8516 93.3722 61.0902 93.0099 58.9027 93.0099H50.6357V131H44.0518ZM82.4308 131V87.3636H109.789V93.0312H89.0146V106.327H108.361V111.973H89.0146V125.332H110.044V131H82.4308ZM118.583 87.3636H126.573L140.465 121.284H140.977L154.869 87.3636H162.859V131H156.594V99.4233H156.19L143.32 130.936H138.121L125.252 99.402H124.847V131H118.583V87.3636ZM172.431 131V87.3636H199.789V93.0312H179.015V106.327H198.361V111.973H179.015V125.332H200.044V131H172.431ZM208.583 131V87.3636H215.167V106.327H236.921V87.3636H243.526V131H236.921V111.973H215.167V131H208.583ZM253.114 87.3636H259.634V119.409H260.039L282.241 87.3636H288.335V131H281.751V98.9972H281.346L259.187 131H253.114V87.3636Z" fill="#FF81B0"/>
</svg>
