<svg width="1257" height="77" viewBox="0 0 1257 77" fill="none" xmlns="http://www.w3.org/2000/svg">
<path d="M40.1903 75.9983L16.6903 44.6204H8.27841V75.9983H0L40.1903 0.93466H48.4688L8.27841 37.2767H11.8835L79.446 0.93466H89.3267L21.4972 37.6772L50.071 75.9983H40.1903Z" fill="#FF81B0"/>
<path d="M64.3746 76.933V69.1886H68.6474C70.2942 69.1886 71.6739 68.8659 72.7866 68.2206C73.9215 67.5752 74.8562 66.7407 75.5906 65.717C76.3472 64.6933 76.9703 63.6252 77.4599 62.5125L78.5281 59.9755L95.0849 0.93466H104.031L82.6673 50.0948L140.082 0.93466H148.895L85.0707 64.9159C84.136 67.0522 83.0678 69.0328 81.8661 70.8576C80.6867 72.6824 79.0733 74.1513 77.0259 75.2639C75.0008 76.3766 72.2525 76.933 68.7809 76.933H64.3746Z" fill="#FF81B0"/>
<path d="M192.824 75.9983H184.145L249.437 0.93466H257.983L242.895 75.9983H234.216L253.977 11.75H253.443L192.824 75.9983ZM196.028 49.2937H231.011V56.6375H196.028V49.2937Z" fill="#FF81B0"/>
<path d="M371.31 0.93466L331.12 75.9983H322.841L363.032 8.27841H328.583L288.392 75.9983H280.114L320.304 0.93466H371.31Z" fill="#FF81B0"/>
<path d="M347.818 75.9983L388.009 0.93466H411.108C416.471 0.93466 420.855 1.9027 424.26 3.83878C427.687 5.75261 430.224 8.34517 431.871 11.6165C433.518 14.8878 394.151 25.2374 394.151 29.2653C394.151 33.2932 393.327 36.954 391.681 40.2476C390.056 43.5411 387.541 46.1671 384.137 48.1254C380.732 50.0615 376.37 51.0295 371.051 51.0295H354.495V43.6858H370.784C374.456 43.6858 377.405 43.0515 379.63 41.7831C381.856 40.5146 383.469 38.8011 384.47 36.6424C385.494 34.4616 386.006 32.0025 386.006 29.2653C386.006 26.5281 425.684 17.3802 424.661 15.2216C423.659 13.063 422.035 11.3717 419.787 10.1477C417.539 8.90152 414.557 8.27841 410.841 8.27841H396.287L356.097 75.9983H347.818Z" fill="#FF81B0"/>
<path d="M465.168 41.8164C465.168 49.0267 463.866 55.2577 461.263 60.5096C458.659 65.7615 455.087 69.8117 450.547 72.6602C446.008 75.5087 440.823 76.933 434.992 76.933C429.161 76.933 423.976 75.5087 419.437 72.6602C414.897 69.8117 411.325 65.7615 408.721 60.5096C406.118 55.2577 404.816 49.0267 404.816 41.8164C404.816 34.6062 446.308 21.6752 448.912 16.4233C451.515 11.1714 455.087 7.12121 459.627 4.27273C464.167 1.42424 469.352 0 475.182 0C481.013 0 486.198 1.42424 490.738 4.27273C495.278 7.12121 498.849 11.1714 501.453 16.4233C504.057 21.6752 465.168 34.6062 465.168 41.8164ZM457.157 41.8164C457.157 35.8969 496.357 24.201 494.376 20.1286C492.418 16.0561 489.759 12.974 486.398 10.8821C483.06 8.79025 479.322 7.74432 475.182 7.74432C471.043 7.74432 467.293 8.79025 463.933 10.8821C460.595 12.974 457.936 16.0561 455.955 20.1286C453.997 24.201 412.827 35.8969 412.827 41.8164C412.827 47.7359 413.806 52.7319 415.765 56.8044C417.745 60.8768 420.405 63.959 423.743 66.0508C427.103 68.1427 430.853 69.1886 434.992 69.1886C439.131 69.1886 442.87 68.1427 446.208 66.0508C449.568 63.959 452.228 60.8768 454.186 56.8044C456.167 52.7319 457.157 47.7359 457.157 41.8164Z" fill="#FF81B0"/>
<path d="M570.417 0.93466L530.227 75.9983H521.949L562.139 8.27841H527.69L487.5 75.9983H479.221L519.412 0.93466H570.417Z" fill="#FF81B0"/>
<path d="M549.73 75.9983H541.051L606.343 0.93466H614.889L599.801 75.9983H591.122L610.883 11.75H610.349L549.73 75.9983ZM552.934 49.2937H587.917V56.6375H552.934V49.2937Z" fill="#FF81B0"/>
<path d="M604.574 75.9983V68.3875H606.577C609.426 68.3875 611.64 67.4751 613.22 65.6502C614.8 63.8254 615.935 60.8768 616.625 56.8044C617.337 52.7319 617.815 47.3354 618.06 40.6147L659.452 0.93466H701.111L660.921 75.9983H652.642L692.833 8.27841H667.33L626.071 42.217C625.804 49.3827 625.148 55.4803 624.102 60.5096C623.056 65.539 621.22 69.3778 618.594 72.026C615.968 74.6742 612.141 75.9983 607.111 75.9983H604.574Z" fill="#FF81B0"/>
<path d="M703.898 75.9983L744.089 0.93466H767.188C772.551 0.93466 776.935 1.9027 780.34 3.83878C783.767 5.75261 786.304 8.34517 787.951 11.6165C789.598 14.8878 750.231 25.2374 750.231 29.2653C750.231 33.2932 749.407 36.954 747.761 40.2476C746.136 43.5411 743.621 46.1671 740.217 48.1254C736.812 50.0615 732.45 51.0295 727.131 51.0295H710.575V43.6858H726.864C730.536 43.6858 733.485 43.0515 735.71 41.7831C737.936 40.5146 739.549 38.8011 740.55 36.6424C741.574 34.4616 742.086 32.0025 742.086 29.2653C742.086 26.5281 781.764 17.3802 780.741 15.2216C779.739 13.063 778.115 11.3717 775.867 10.1477C773.62 8.90152 770.638 8.27841 766.921 8.27841H752.367L712.177 75.9983H703.898Z" fill="#FF81B0"/>
<path d="M763.566 75.9983L803.757 0.93466H845.015V8.27841H812.035L771.845 38.0778H802.689V45.4216H771.845V68.6545H805.359V75.9983H763.566Z" fill="#FF81B0"/>
<path d="M900.394 0.93466L860.203 75.9983H851.925L892.115 0.93466H900.394ZM814.005 75.9983L836.169 40.3477L856.064 0.93466H866.078L843.647 37.9443H868.615L926.564 0.93466H936.578L875.959 40.4812L898.124 75.9983H888.644L870.084 45.6886H842.044L823.351 75.9983H814.005Z" fill="#FF81B0"/>
<path d="M949.163 0.93466H957.308L917.118 61.4443H917.785L995.362 0.93466H1003.37L963.183 75.9983H954.904L995.095 15.6222H994.427L916.984 75.9983H908.973L949.163 0.93466Z" fill="#FF81B0"/>
<path d="M1103.15 28.9983H1094.87C1094.38 26.6171 1133.71 17.8253 1132.49 16.0227C1131.29 14.2202 1129.82 12.7069 1128.08 11.483C1126.37 10.2367 1124.47 9.30208 1122.38 8.67898C1120.28 8.05587 1118.1 7.74432 1115.83 7.74432C1111.69 7.74432 1107.94 8.79025 1104.58 10.8821C1101.25 12.974 1098.59 16.0561 1096.61 20.1286C1094.65 24.201 1053.48 35.8969 1053.48 41.8164C1053.48 47.7359 1054.46 52.7319 1056.42 56.8044C1058.4 60.8768 1061.06 63.959 1064.39 66.0508C1067.75 68.1427 1071.5 69.1886 1075.64 69.1886C1077.91 69.1886 1080.09 68.877 1082.19 68.2539C1084.28 67.6308 1086.18 66.7073 1087.89 65.4833C1089.63 64.2371 1091.1 62.7127 1092.3 60.9102C1093.52 59.0854 1094.38 56.9935 1094.87 54.6346H1103.15C1102.53 58.1285 1101.39 61.2551 1099.74 64.0146C1098.1 66.7741 1096.05 69.1218 1093.6 71.0579C1091.15 72.9717 1088.41 74.4294 1085.36 75.4308C1082.33 76.4323 1079.09 76.933 1075.64 76.933C1069.81 76.933 1064.63 75.5087 1060.09 72.6602C1055.55 69.8117 1051.98 65.7615 1049.37 60.5096C1046.77 55.2577 1045.47 49.0267 1045.47 41.8164C1045.47 34.6062 1086.96 21.6752 1089.56 16.4233C1092.17 11.1714 1095.74 7.12121 1100.28 4.27273C1104.82 1.42424 1110 0 1115.83 0C1119.28 0 1122.52 0.500711 1125.55 1.50213C1128.6 2.50355 1131.34 3.9723 1133.79 5.90838C1136.24 7.82221 1138.29 10.1589 1139.93 12.9183C1141.58 15.6555 1102.53 25.4822 1103.15 28.9983Z" fill="#FF81B0"/>
<path d="M1116.53 75.9983L1156.72 0.93466H1197.97V8.27841H1164.99L1124.8 38.0778H1155.65V45.4216H1124.8V68.6545H1158.32V75.9983H1116.53Z" fill="#FF81B0"/>
<path d="M1172.71 75.9983L1212.9 0.93466H1235.99C1241.36 0.93466 1245.74 1.9027 1249.15 3.83878C1252.57 5.75261 1255.11 8.34517 1256.76 11.6165C1258.4 14.8878 1219.04 25.2374 1219.04 29.2653C1219.04 33.2932 1218.21 36.954 1216.57 40.2476C1214.94 43.5411 1212.43 46.1671 1209.02 48.1254C1205.62 50.0615 1201.26 51.0295 1195.94 51.0295H1179.38V43.6858H1195.67C1199.34 43.6858 1202.29 43.0515 1204.52 41.7831C1206.74 40.5146 1208.36 38.8011 1209.36 36.6424C1210.38 34.4616 1210.89 32.0025 1210.89 29.2653C1210.89 26.5281 1250.57 17.3802 1249.55 15.2216C1248.55 13.063 1246.92 11.3717 1244.67 10.1477C1242.43 8.90152 1239.44 8.27841 1235.73 8.27841H1221.17L1180.98 75.9983H1172.71Z" fill="#FF81B0"/>
</svg>
