<svg width="949" height="99" viewBox="0 0 949 99" fill="none" xmlns="http://www.w3.org/2000/svg">
<path d="M7.99006 24.2727H21.3068L44.4602 80.8068H45.3125L68.4659 24.2727H81.7827V97H71.3423V44.3722H70.6676L49.2188 96.8935H40.554L19.1051 44.3366H18.4304V97H7.99006V24.2727ZM105.442 53.6051H125.044C130.442 53.6051 135.035 54.4811 138.823 56.233C142.611 57.9848 145.499 60.4588 147.488 63.6548C149.5 66.8509 150.494 70.6151 150.471 74.9474C150.494 79.2798 149.5 83.1032 147.488 86.4176C145.499 89.732 142.611 92.3243 138.823 94.1946C135.035 96.0649 130.442 97 125.044 97H97.8072V24.2727H108.816V87.767H125.044C128.193 87.767 130.845 87.1515 132.999 85.9205C135.177 84.6894 136.822 83.0914 137.935 81.1264C139.071 79.1615 139.64 77.0545 139.64 74.8054C139.64 71.5384 138.385 68.733 135.875 66.3892C133.366 64.0218 129.756 62.8381 125.044 62.8381H105.442V53.6051ZM168.191 24.2727V97H157.182V24.2727H168.191ZM210.627 97V24.2727H221.6V55.8778H257.857V24.2727H268.865V97H257.857V65.2884H221.6V97H210.627ZM284.846 97V24.2727H330.442V33.7188H295.819V55.8778H328.063V65.2884H295.819V87.554H330.868V97H284.846ZM376.713 97.9943V88.3352H381.081C382.904 88.3352 384.408 88.0275 385.591 87.4119C386.799 86.7964 387.781 85.9678 388.539 84.9261C389.32 83.8608 389.971 82.7008 390.492 81.446L391.522 78.8537L365.953 24.2727H377.601L396.671 66.3182L413.645 24.2727H425.151L400.009 84.3935C398.944 86.8082 397.712 89.0455 396.316 91.1051C394.943 93.1648 393.108 94.8338 390.811 96.1122C388.515 97.367 385.473 97.9943 381.685 97.9943H376.713ZM492.223 47.9233H481.143C480.717 45.5559 479.924 43.4725 478.764 41.6733C477.604 39.8741 476.184 38.3471 474.503 37.0923C472.822 35.8376 470.94 34.8906 468.857 34.2514C466.797 33.6122 464.607 33.2926 462.287 33.2926C458.097 33.2926 454.344 34.3461 451.03 36.4531C447.739 38.5601 445.135 41.6496 443.217 45.7216C441.323 49.7936 440.376 54.7652 440.376 60.6364C440.376 66.5549 441.323 71.5502 443.217 75.6222C445.135 79.6941 447.751 82.7718 451.065 84.8551C454.38 86.9384 458.108 87.9801 462.251 87.9801C464.548 87.9801 466.726 87.6723 468.786 87.0568C470.869 86.4176 472.751 85.4825 474.432 84.2514C476.113 83.0204 477.533 81.517 478.693 79.7415C479.877 77.9422 480.694 75.8826 481.143 73.5625L492.223 73.598C491.631 77.1728 490.483 80.4635 488.778 83.4702C487.098 86.4531 484.931 89.0336 482.28 91.2116C479.652 93.366 476.645 95.035 473.26 96.2188C469.875 97.4025 466.181 97.9943 462.18 97.9943C455.883 97.9943 450.272 96.5028 445.348 93.5199C440.424 90.5133 436.541 86.2164 433.7 80.6293C430.883 75.0421 429.474 68.3778 429.474 60.6364C429.474 52.8712 430.895 46.2069 433.736 40.6435C436.577 35.0563 440.459 30.7713 445.384 27.7884C450.308 24.7817 455.907 23.2784 462.18 23.2784C466.039 23.2784 469.638 23.8348 472.976 24.9474C476.338 26.0365 479.356 27.6463 482.031 29.777C484.706 31.884 486.92 34.4645 488.672 37.5185C490.424 40.5488 491.607 44.017 492.223 47.9233ZM562.207 24.2727V97H551.27V33.6477H517.037V97H506.099V24.2727H562.207ZM578.986 97V24.2727H624.583V33.7188H589.959V55.8778H622.203V65.2884H589.959V87.554H625.009V97H578.986ZM639.24 97V24.2727H665.874C671.035 24.2727 675.308 25.125 678.693 26.8295C682.079 28.5104 684.612 30.795 686.293 33.6832C687.973 36.5478 688.814 39.7794 688.814 43.3778C688.814 46.4081 688.258 48.965 687.145 51.0483C686.032 53.108 684.541 54.7651 682.67 56.0199C680.824 57.2509 678.788 58.1506 676.562 58.7188V59.429C678.977 59.5473 681.333 60.3286 683.629 61.7727C685.949 63.1932 687.867 65.2173 689.382 67.8452C690.897 70.473 691.655 73.669 691.655 77.4332C691.655 81.1501 690.779 84.4882 689.027 87.4474C687.299 90.383 684.624 92.715 681.001 94.4432C677.379 96.1477 672.751 97 667.116 97H639.24ZM650.213 87.5895H666.051C671.307 87.5895 675.071 86.5715 677.344 84.5355C679.616 82.4995 680.753 79.9545 680.753 76.9006C680.753 74.6042 680.173 72.4972 679.013 70.5795C677.853 68.6619 676.196 67.1349 674.041 65.9986C671.911 64.8622 669.377 64.294 666.442 64.294H650.213V87.5895ZM650.213 55.7358H664.915C667.377 55.7358 669.59 55.2623 671.555 54.3153C673.544 53.3684 675.118 52.0426 676.278 50.3381C677.462 48.6098 678.054 46.5739 678.054 44.2301C678.054 41.2235 677 38.7022 674.893 36.6662C672.786 34.6302 669.555 33.6122 665.199 33.6122H650.213V55.7358ZM710.813 97H699.165L725.337 24.2727H738.015L764.187 97H752.539L731.978 37.483H731.41L710.813 97ZM712.766 68.5199H750.55V77.7528H712.766V68.5199ZM774.689 97V24.2727H820.286V33.7188H785.662V55.8778H817.907V65.2884H785.662V87.554H820.712V97H774.689ZM834.943 24.2727H848.26L871.413 80.8068H872.266L895.419 24.2727H908.736V97H898.295V44.3722H897.621L876.172 96.8935H867.507L846.058 44.3366H845.384V97H834.943V24.2727Z" fill="#FF81B0"/>
</svg>
