<svg width="814" height="77" viewBox="0 0 814 77" fill="none" xmlns="http://www.w3.org/2000/svg">
<path d="M27.6531 0.835938H39.4259L40.3178 63.1456H41.2724L95.744 0.835938H107.517L80.7269 76.9865H71.4996V15.1001H70.7042L45.2496 76.9865H36.3406L10.886 15.1001H10.0906V76.9865H0.863281L27.6531 0.835938Z" fill="#FF81B0"/>
<path d="M103.845 76.9865H93.5039L150.203 0.835938H160.385L163.504 76.9865H153.163L128.822 8.4183H128.186L103.845 76.9865ZM107.663 45.1683H149.345V53.9183H107.663V45.1683Z" fill="#FF81B0"/>
<path d="M169.191 76.9865V67.9183H171.578C174.972 67.9183 177.61 66.8312 179.493 64.657C181.375 62.4827 182.727 58.9695 183.549 54.1172C184.398 49.2649 184.968 42.835 185.26 34.8274L213.481 0.835938H263.118L236.328 76.9865H226.464V4.28193H196.078L194.805 36.7365C194.487 45.2744 193.705 52.5396 192.458 58.532C191.212 64.5244 189.025 69.0983 185.896 72.2536C182.767 75.4089 178.207 76.9865 172.214 76.9865H169.191Z" fill="#FF81B0"/>
<path d="M350.535 76.9865L377.325 0.835938H405.802C411.477 0.835938 416.156 1.817 419.842 3.77912C423.528 5.71473 399.482 3.02247 401.285 6.31035C403.088 9.57171 403.99 13.191 403.99 17.1683C403.99 20.6683 403.367 23.5584 402.12 25.8388C400.901 28.1191 399.283 29.9221 397.268 31.2478C395.279 32.5736 393.118 33.5547 390.785 34.1911V34.9865C393.278 35.1456 395.783 36.0206 398.302 37.6115C400.821 39.2024 402.929 41.4827 404.626 44.4524C406.323 47.4221 407.172 51.0547 407.172 55.3502C407.172 59.4335 406.243 63.1058 404.387 66.3672C402.531 69.6286 399.601 72.2138 395.598 74.1229C391.594 76.032 386.384 76.9865 379.967 76.9865H350.535ZM360.399 68.2365H379.967C386.41 68.2365 390.984 66.9903 393.689 64.4979C396.42 61.9789 397.785 58.9297 397.785 55.3502C397.785 52.5926 397.083 50.0471 395.677 47.7138C394.272 45.3539 392.27 43.4714 389.672 42.0661C387.073 40.6342 383.997 39.9183 380.444 39.9183H360.399V68.2365ZM360.399 31.3274H378.694C381.664 31.3274 384.342 30.7441 386.728 29.5774C389.141 28.4107 391.05 26.7668 392.456 24.6456C393.887 22.5244 394.603 20.0319 394.603 17.1683C394.603 13.5888 393.357 10.5528 390.865 8.06035C388.372 5.54141 384.422 4.28193 379.012 4.28193H360.399V31.3274Z" fill="#FF81B0"/>
<path d="M423.379 76.9865L450.169 0.835938H477.691C484.082 0.835938 489.305 1.98935 493.362 4.29616C497.445 6.57647 473.678 4.36148 475.64 8.25921C477.602 12.1569 478.583 16.5054 478.583 21.3047C478.583 26.1039 477.602 30.4657 475.64 34.3899C473.705 38.3142 470.708 41.443 466.652 43.7763C462.595 46.0831 457.398 47.2365 451.061 47.2365H431.333V38.4865H450.743C455.118 38.4865 458.631 37.7308 461.282 36.2195C463.934 34.7081 465.856 32.6664 467.049 30.0944C468.269 27.496 468.879 24.566 468.879 21.3047C468.879 18.0433 468.269 15.1266 467.049 12.5547C465.856 9.98269 463.921 7.96754 461.243 6.50921C458.565 5.02436 455.012 4.28193 450.583 4.28193H433.243V76.9865H423.379Z" fill="#FF81B0"/>
<path d="M494.473 76.9865L521.263 0.835938H570.422L543.632 4.28193H504.336V31.8047H541.086V40.5547H504.336V68.2365H544.268V76.9865H494.473Z" fill="#FF81B0"/>
<path d="M588.2 0.835938H599.973L600.865 63.1456H601.819L656.291 0.835938H668.064L641.274 76.9865H632.047V15.1001H631.251L605.797 76.9865H596.887L571.433 15.1001H570.637V76.9865H561.41L588.2 0.835938Z" fill="#FF81B0"/>
<path d="M724.051 76.9865L750.841 0.835938H760.704L733.914 31.8047H777.346L804.136 0.835938H814L787.21 76.9865H777.346V40.5547H733.914V76.9865H724.051Z" fill="#FF81B0"/>
</svg>
