<svg width="77" height="73" viewBox="0 0 77 73" fill="none" xmlns="http://www.w3.org/2000/svg">
<path d="M39.0402 72.0208L0 20.1844L21.6545 10.0691C25.9692 8.05353 33.3759 7.32005 33.3759 7.32005C36.8661 7.48275 49.9874 -1.60874 52.5263 0.250957C55.0558 2.09048 57.027 4.52243 58.4397 7.5468C59.683 10.2082 60.2357 12.6273 60.0981 14.8039C59.9806 16.9711 59.3911 18.9167 58.3297 20.6406C57.2885 22.3551 55.9937 23.8687 54.4454 25.1815L54.728 25.7863C56.6798 25.022 58.8959 24.7973 61.3765 25.1123C63.857 25.4273 66.2699 26.4125 68.6152 28.0679C70.9604 29.7233 72.896 32.1842 74.4217 35.4505C75.8722 38.5556 76.4709 41.6777 76.218 44.817C75.9651 47.9562 74.6555 50.9628 72.2891 53.8367C69.9227 56.7106 66.2998 59.2871 61.4205 61.5664L39.0402 72.0208ZM43.4325 61.8636L58.3124 54.9128C63.2119 52.6241 66.2472 50.0518 67.4185 47.1958C68.6005 44.3103 68.5557 41.5066 67.2842 38.7847C66.3047 36.6878 64.8662 35.0017 62.9688 33.7266C61.062 32.4313 58.871 31.7109 56.3959 31.5653C53.9114 31.3995 51.3182 31.9477 48.6165 33.2097L33.3737 40.3301L43.4325 61.8636ZM30.3221 33.7974L44.2342 27.2987C46.4924 26.2439 48.3216 24.849 49.7218 23.1142C51.1422 21.37 52.0099 19.4418 52.3251 17.3296C52.6604 15.208 52.3194 13.0585 51.3022 10.8809C50.0307 8.15899 48.0047 6.29306 45.2241 5.28311C42.4341 4.25301 38.9825 4.69864 34.8693 6.61999L20.7153 13.2317L30.3221 33.7974Z" fill="#FF81B0"/>
</svg>
