<svg width="307" height="85" viewBox="0 0 307 85" fill="none" xmlns="http://www.w3.org/2000/svg">
<path d="M0.00453841 84.9205V61.0199H4.41079C5.92404 59.6402 7.34829 57.6929 8.68351 55.1783C10.041 52.6413 19.1659 48.6913 20.1006 44.4631C21.0575 40.2126 -0.308178 31.5114 0.00337484 24.9688L15.4932 0H56.0841V61.0199H63.9619V84.7869H56.0841V68.3636H7.88238V84.9205H0.00453841ZM14.2915 61.0199H48.2063V7.34375H22.9704L7.88122 24.9688C7.61417 29.9536 29.1468 37.7758 28.4791 41.826C27.8115 45.8539 26.9548 49.4257 25.9088 52.5412C24.8629 55.6345 15.6712 58.839 14.2915 61.0199Z" fill="#FF81B0"/>
<path d="M76.4713 68.3636V0H100.372C105.134 0 109.062 0.823391 112.155 2.47017C115.249 4.0947 117.552 6.28669 119.065 9.04617C120.578 11.7834 107.314 10.9489 107.314 14.2869C107.314 17.2244 106.791 19.6501 105.745 21.5639C104.721 23.4777 103.364 24.991 101.673 26.1037C100.004 27.2164 112.211 31.9119 110.253 32.446V33.1136C112.344 33.2472 114.447 33.9815 116.562 35.3168C118.676 36.652 128.424 37.9983 129.848 40.4908C131.272 42.9832 131.984 46.032 131.984 49.6371C131.984 53.0642 123.226 56.7138 121.669 59.451C120.111 62.1882 117.652 64.358 114.292 65.9602C110.931 67.5625 106.558 68.3636 101.173 68.3636H76.4713ZM84.7497 61.0199H101.173C106.581 61.0199 110.419 59.974 112.689 57.8821C114.981 55.768 124.106 52.6413 124.106 49.6371C124.106 47.3227 123.517 45.1863 122.337 43.228C121.158 41.2474 111.499 40.2349 109.318 39.0554C107.137 37.8537 104.556 37.2528 101.574 37.2528H84.7497V61.0199ZM70.7287 26.1705H86.0838C88.5762 26.1705 90.8239 25.6809 92.8267 24.7017C94.8518 23.7225 96.4541 22.3428 97.6335 20.5625C98.8352 18.7822 99.4361 16.6903 99.4361 14.2869C99.4361 11.2827 112.411 12.6068 110.319 10.5149C108.227 8.40081 104.912 7.34375 100.372 7.34375H84.7497L70.7287 26.1705Z" fill="#FF81B0"/>
<path d="M190.483 68.3636V0H213.583C218.946 0 223.33 0.968039 226.734 2.90412C230.162 4.81795 232.699 7.41051 234.345 10.6818C235.992 13.9531 222.794 13.7306 222.794 17.7585C222.794 21.7865 235.992 29.3194 234.345 32.6129C232.721 35.9065 230.206 38.5324 226.801 40.4908C223.396 42.4268 227.014 42.8274 221.695 42.8274H205.138L197.159 36.0511H213.449C217.121 36.0511 220.069 35.4169 222.295 34.1484C224.52 32.88 212.113 27.2943 213.114 25.1357C214.138 22.9548 214.65 20.4957 214.65 17.7585C214.65 15.0213 228.159 16.4456 227.135 14.2869C226.134 12.1283 224.509 10.437 222.261 9.21307C220.014 7.96686 217.032 7.34375 213.315 7.34375H198.761V37.8537V68.3636H190.483Z" fill="#FF81B0"/>
<path d="M242.272 24.8352H261.766C266.662 24.8352 270.79 25.6364 274.151 27.2386C277.533 28.8409 294.113 34.9718 295.849 37.8871C297.607 40.8023 306.465 43.6731 306.465 47.6342C306.465 51.5954 297.607 55.6567 295.849 58.6832C294.113 61.7098 291.554 64.0798 288.172 65.7933C284.811 67.5069 280.683 68.3636 275.787 68.3636H250.151V0H258.429V61.1534H275.787C278.903 61.1534 281.54 60.5303 283.699 59.2841C285.879 58.0156 287.526 56.3911 288.639 54.4105C289.774 52.4077 298.32 49.7261 298.32 47.5007C298.32 44.2294 289.084 41.9818 286.569 39.6229C284.055 37.2417 280.461 36.0511 275.787 36.0511H256.293L242.272 24.8352Z" fill="#FF81B0"/>
</svg>
