<svg width="1346" height="115" viewBox="0 0 1346 115" fill="none" xmlns="http://www.w3.org/2000/svg">
<path d="M51.1364 97L26.7045 64.4006H18.9631V97H7.99006V24.2727H18.9631V54.9901H22.5497L50.0355 24.2727H63.4233L34.3395 56.8366L64.5241 97H51.1364ZM79.8384 97.9943V88.3352H84.2063C86.0292 88.3352 87.5326 88.0275 88.7163 87.4119C89.9237 86.7964 90.9061 85.9678 91.6637 84.9261C92.445 83.8608 93.096 82.7008 93.6168 81.446L94.6467 78.8537L69.0785 24.2727H80.7262L99.7958 66.3182L116.77 24.2727H128.276L103.134 84.3935C102.069 86.8082 100.837 89.0455 99.4407 91.1051C98.0676 93.1648 96.2328 94.8338 93.9364 96.1122C91.64 97.367 88.5979 97.9943 84.81 97.9943H79.8384ZM133.15 114.578V87.696H137.944C139.577 86.3229 141.104 84.3698 142.525 81.8366C143.945 79.3035 145.153 75.8826 146.147 71.5739C147.141 67.2652 147.828 61.7372 148.207 54.9901L149.911 24.2727H194.762V87.696H203.001V114.472H192.489V97H143.661V114.578H133.15ZM150.87 87.696H184.251V33.7188H159.854L158.718 54.9901C158.41 60.1274 157.901 64.7438 157.191 68.8395C156.504 72.9351 155.617 76.5573 154.528 79.706C153.462 82.831 152.243 85.4943 150.87 87.696ZM221.165 97H209.517L235.689 24.2727H248.366L274.538 97H262.891L242.33 37.483H241.761L221.165 97ZM223.118 68.5199H260.902V77.7528H223.118V68.5199ZM368.359 24.2727V97H357.422V33.6477H323.189V97H312.251V24.2727H368.359ZM385.138 97V24.2727H411.062C416.72 24.2727 421.407 25.3026 425.124 27.3622C428.841 29.4219 431.623 32.2391 433.469 35.8139C435.316 39.3651 436.239 43.366 436.239 47.8168C436.239 52.2912 435.304 56.3158 433.434 59.8906C431.587 63.4418 428.794 66.259 425.053 68.3423C421.336 70.402 416.661 71.4318 411.026 71.4318H393.2V62.1278H410.032C413.607 62.1278 416.507 61.5123 418.732 60.2812C420.958 59.0265 422.591 57.322 423.633 55.1676C424.674 53.0133 425.195 50.563 425.195 47.8168C425.195 45.0705 424.674 42.6321 423.633 40.5014C422.591 38.3707 420.946 36.7017 418.697 35.4943C416.471 34.2869 413.536 33.6832 409.89 33.6832H396.112V97H385.138ZM512.278 60.6364C512.278 68.4015 510.858 75.0777 508.017 80.6648C505.176 86.2282 501.281 90.5133 496.333 93.5199C491.409 96.5028 485.81 97.9943 479.537 97.9943C473.239 97.9943 467.617 96.5028 462.669 93.5199C457.744 90.5133 453.862 86.2164 451.021 80.6293C448.18 75.0421 446.76 68.3778 446.76 60.6364C446.76 52.8712 448.18 46.2069 451.021 40.6435C453.862 35.0563 457.744 30.7713 462.669 27.7884C467.617 24.7817 473.239 23.2784 479.537 23.2784C485.81 23.2784 491.409 24.7817 496.333 27.7884C501.281 30.7713 505.176 35.0563 508.017 40.6435C510.858 46.2069 512.278 52.8712 512.278 60.6364ZM501.412 60.6364C501.412 54.7178 500.453 49.7344 498.535 45.6861C496.641 41.6141 494.037 38.5365 490.723 36.4531C487.432 34.3461 483.703 33.2926 479.537 33.2926C475.346 33.2926 471.606 34.3461 468.315 36.4531C465.024 38.5365 462.42 41.6141 460.502 45.6861C458.609 49.7344 457.662 54.7178 457.662 60.6364C457.662 66.5549 458.609 71.5502 460.502 75.6222C462.42 79.6705 465.024 82.7481 468.315 84.8551C471.606 86.9384 475.346 87.9801 479.537 87.9801C483.703 87.9801 487.432 86.9384 490.723 84.8551C494.037 82.7481 496.641 79.6705 498.535 75.6222C500.453 71.5502 501.412 66.5549 501.412 60.6364ZM582.812 24.2727V97H571.875V33.6477H537.642V97H526.705V24.2727H582.812ZM605.735 97H594.087L620.259 24.2727H632.937L659.109 97H647.461L626.9 37.483H626.332L605.735 97ZM607.688 68.5199H645.472V77.7528H607.688V68.5199ZM664.107 97V87.483L666.238 87.4119C669.126 87.3409 671.399 86.3584 673.056 84.4645C674.737 82.5705 675.956 79.5166 676.713 75.3026C677.495 71.0885 678.016 65.4659 678.276 58.4347L679.519 24.2727H725.506V97H714.675V33.5767H689.853L688.716 61.3466C688.409 69.1354 687.627 75.6813 686.373 80.9844C685.118 86.2637 682.987 90.2528 679.98 92.9517C676.998 95.6506 672.748 97 667.232 97H664.107ZM767.951 97V24.2727H793.874C799.532 24.2727 804.22 25.3026 807.937 27.3622C811.654 29.4219 814.435 32.2391 816.282 35.8139C818.129 39.3651 819.052 43.366 819.052 47.8168C819.052 52.2912 818.117 56.3158 816.246 59.8906C814.4 63.4418 811.606 66.259 807.866 68.3423C804.149 70.402 799.473 71.4318 793.839 71.4318H776.012V62.1278H792.844C796.419 62.1278 799.319 61.5123 801.545 60.2812C803.77 59.0265 805.404 57.322 806.445 55.1676C807.487 53.0133 808.008 50.563 808.008 47.8168C808.008 45.0705 807.487 42.6321 806.445 40.5014C805.404 38.3707 803.758 36.7017 801.509 35.4943C799.284 34.2869 796.348 33.6832 792.702 33.6832H778.924V97H767.951ZM831.916 97V24.2727H877.512V33.7188H842.889V55.8778H875.133V65.2884H842.889V87.554H877.939V97H831.916ZM939.329 24.2727V97H928.462V24.2727H939.329ZM886.95 97L910.245 58.9318L888.583 24.2727H902.006L920.046 55.7358H947.994L965.891 24.2727H979.279L957.688 59.0028L980.842 97H968.022L949.734 65.9631H918.164L899.627 97H886.95ZM991.584 24.2727H1002.45V77.6818H1003.12L1040.13 24.2727H1050.28V97H1039.31V43.6619H1038.64L1001.7 97H991.584V24.2727ZM1126.7 47.9233H1115.62C1115.19 45.5559 1114.4 43.4725 1113.24 41.6733C1112.08 39.8741 1110.66 38.3471 1108.98 37.0923C1107.29 35.8376 1105.41 34.8906 1103.33 34.2514C1101.27 33.6122 1099.08 33.2926 1096.76 33.2926C1092.57 33.2926 1088.82 34.3461 1085.5 36.4531C1082.21 38.5601 1079.61 41.6496 1077.69 45.7216C1075.8 49.7936 1074.85 54.7652 1074.85 60.6364C1074.85 66.5549 1075.8 71.5502 1077.69 75.6222C1079.61 79.6941 1082.22 82.7718 1085.54 84.8551C1088.85 86.9384 1092.58 87.9801 1096.72 87.9801C1099.02 87.9801 1101.2 87.6723 1103.26 87.0568C1105.34 86.4176 1107.22 85.4825 1108.9 84.2514C1110.59 83.0204 1112.01 81.517 1113.17 79.7415C1114.35 77.9422 1115.17 75.8826 1115.62 73.5625L1126.7 73.598C1126.1 77.1728 1124.96 80.4635 1123.25 83.4702C1121.57 86.4531 1119.4 89.0336 1116.75 91.2116C1114.12 93.366 1111.12 95.035 1107.73 96.2188C1104.35 97.4025 1100.65 97.9943 1096.65 97.9943C1090.36 97.9943 1084.74 96.5028 1079.82 93.5199C1074.9 90.5133 1071.01 86.2164 1068.17 80.6293C1065.36 75.0421 1063.95 68.3778 1063.95 60.6364C1063.95 52.8712 1065.37 46.2069 1068.21 40.6435C1071.05 35.0563 1074.93 30.7713 1079.86 27.7884C1084.78 24.7817 1090.38 23.2784 1096.65 23.2784C1100.51 23.2784 1104.11 23.8348 1107.45 24.9474C1110.81 26.0365 1113.83 27.6463 1116.5 29.777C1119.18 31.884 1121.39 34.4645 1123.14 37.5185C1124.9 40.5488 1126.08 44.017 1126.7 47.9233ZM1200.23 47.9233H1189.15C1188.73 45.5559 1187.93 43.4725 1186.77 41.6733C1185.61 39.8741 1184.19 38.3471 1182.51 37.0923C1180.83 35.8376 1178.95 34.8906 1176.86 34.2514C1174.8 33.6122 1172.61 33.2926 1170.29 33.2926C1166.1 33.2926 1162.35 34.3461 1159.04 36.4531C1155.75 38.5601 1153.14 41.6496 1151.23 45.7216C1149.33 49.7936 1148.38 54.7652 1148.38 60.6364C1148.38 66.5549 1149.33 71.5502 1151.23 75.6222C1153.14 79.6941 1155.76 82.7718 1159.07 84.8551C1162.39 86.9384 1166.12 87.9801 1170.26 87.9801C1172.56 87.9801 1174.73 87.6723 1176.79 87.0568C1178.88 86.4176 1180.76 85.4825 1182.44 84.2514C1184.12 83.0204 1185.54 81.517 1186.7 79.7415C1187.88 77.9422 1188.7 75.8826 1189.15 73.5625L1200.23 73.598C1199.64 77.1728 1198.49 80.4635 1196.79 83.4702C1195.11 86.4531 1192.94 89.0336 1190.29 91.2116C1187.66 93.366 1184.65 95.035 1181.27 96.2188C1177.88 97.4025 1174.19 97.9943 1170.19 97.9943C1163.89 97.9943 1158.28 96.5028 1153.36 93.5199C1148.43 90.5133 1144.55 86.2164 1141.71 80.6293C1138.89 75.0421 1137.48 68.3778 1137.48 60.6364C1137.48 52.8712 1138.9 46.2069 1141.74 40.6435C1144.58 35.0563 1148.47 30.7713 1153.39 27.7884C1158.32 24.7817 1163.91 23.2784 1170.19 23.2784C1174.05 23.2784 1177.65 23.8348 1180.98 24.9474C1184.35 26.0365 1187.36 27.6463 1190.04 29.777C1192.71 31.884 1194.93 34.4645 1196.68 37.5185C1198.43 40.5488 1199.62 44.017 1200.23 47.9233ZM1213.36 97V24.2727H1258.96V33.7188H1224.33V55.8778H1256.58V65.2884H1224.33V87.554H1259.38V97H1213.36ZM1273.62 97V24.2727H1299.54C1305.2 24.2727 1309.88 25.3026 1313.6 27.3622C1317.32 29.4219 1320.1 32.2391 1321.95 35.8139C1323.79 39.3651 1324.72 43.366 1324.72 47.8168C1324.72 52.2912 1323.78 56.3158 1321.91 59.8906C1320.06 63.4418 1317.27 66.259 1313.53 68.3423C1309.81 70.402 1305.14 71.4318 1299.5 71.4318H1281.68V62.1278H1298.51C1302.08 62.1278 1304.98 61.5123 1307.21 60.2812C1309.43 59.0265 1311.07 57.322 1312.11 55.1676C1313.15 53.0133 1313.67 50.563 1313.67 47.8168C1313.67 45.0705 1313.15 42.6321 1312.11 40.5014C1311.07 38.3707 1309.42 36.7017 1307.17 35.4943C1304.95 34.2869 1302.01 33.6832 1298.37 33.6832H1284.59V97H1273.62Z" fill="#FF81B0"/>
</svg>
