<svg width="94" height="76" viewBox="0 0 94 76" fill="none" xmlns="http://www.w3.org/2000/svg">
<path d="M71.7644 45.7763C69.0238 53.9184 65.1854 60.4599 60.249 65.4009C55.3127 70.3419 49.7399 73.558 43.5307 75.0491C37.3216 76.5402 30.925 76.1777 24.341 73.9616C17.7569 71.7455 12.443 68.1664 8.39921 63.2243C4.3554 58.2821 1.86149 52.3509 0.917482 45.4306C-0.0265262 38.5103 0.871731 30.9792 3.61225 22.8371C6.35278 14.6951 10.1912 8.1535 15.1276 3.21249C20.064 -1.72851 45.1064 2.46495 51.3156 0.973843C57.5248 -0.517263 63.9213 -0.154765 70.5054 2.06134C77.0894 4.27744 82.4033 7.85656 86.4471 12.7987C90.4909 17.7408 92.9848 23.672 93.9288 30.5923C94.8728 37.5126 74.5049 37.6342 71.7644 45.7763ZM62.7176 42.7313C64.9676 36.0467 85.2179 37.4382 84.5292 32.0867C83.8657 26.7435 82.0342 22.2523 79.0346 18.6129C76.0602 14.9819 72.236 12.3798 67.5618 10.8065C62.8877 9.23326 58.2558 8.98912 53.6661 10.0741C49.1015 11.1676 25.4573 6.22774 21.6729 10.0737C17.9136 13.9281 14.9089 19.1976 12.659 25.8821C10.4091 32.5667 9.61586 38.5805 10.2794 43.9236C10.9681 49.2751 12.7996 53.7664 15.774 57.3974C18.7735 61.0368 22.6103 63.6432 27.2845 65.2164C31.9586 66.7897 36.578 67.0296 41.1425 65.9361C45.7322 64.8512 49.9068 62.3815 53.6661 58.527C57.4505 54.6811 60.4677 49.4158 62.7176 42.7313Z" fill="#FF81B0"/>
</svg>
