<svg width="692" height="99" viewBox="0 0 692 99" fill="none" xmlns="http://www.w3.org/2000/svg">
<path d="M68.3949 47.9233H57.3153C56.8892 45.5559 56.0961 43.4725 54.9361 41.6733C53.776 39.8741 52.3556 38.3471 50.6747 37.0923C48.9938 35.8376 47.1117 34.8906 45.0284 34.2514C42.9688 33.6122 40.7789 33.2926 38.4588 33.2926C34.2685 33.2926 30.5161 34.3461 27.2017 36.4531C23.911 38.5601 21.3068 41.6496 19.3892 45.7216C17.4953 49.7936 16.5483 54.7652 16.5483 60.6364C16.5483 66.5549 17.4953 71.5502 19.3892 75.6222C21.3068 79.6941 23.9228 82.7718 27.2372 84.8551C30.5516 86.9384 34.2803 87.9801 38.4233 87.9801C40.7197 87.9801 42.8977 87.6723 44.9574 87.0568C47.0407 86.4176 48.9228 85.4825 50.6037 84.2514C52.2846 83.0204 53.705 81.517 54.8651 79.7415C56.0488 77.9422 56.8655 75.8826 57.3153 73.5625L68.3949 73.598C67.803 77.1728 66.6548 80.4635 64.9503 83.4702C63.2694 86.4531 61.1032 89.0336 58.4517 91.2116C55.8239 93.366 52.8172 95.035 49.4318 96.2188C46.0464 97.4025 42.3532 97.9943 38.3523 97.9943C32.0549 97.9943 26.4441 96.5028 21.5199 93.5199C16.5956 90.5133 12.7131 86.2164 9.87216 80.6293C7.05492 75.0421 5.64631 68.3778 5.64631 60.6364C5.64631 52.8712 7.06676 46.2069 9.90767 40.6435C12.7486 35.0563 16.6312 30.7713 21.5554 27.7884C26.4796 24.7817 32.0786 23.2784 38.3523 23.2784C42.2112 23.2784 45.8097 23.8348 49.1477 24.9474C52.5095 26.0365 55.5279 27.6463 58.2031 29.777C60.8783 31.884 63.0919 34.4645 64.8438 37.5185C66.5956 40.5488 67.7794 44.017 68.3949 47.9233ZM76.021 97V87.483L78.1516 87.4119C81.0399 87.3409 83.3126 86.3584 84.9698 84.4645C86.6507 82.5705 87.8699 79.5166 88.6275 75.3026C89.4087 71.0885 89.9296 65.4659 90.19 58.4347L91.4329 24.2727H137.42V97H126.589V33.5767H101.767L100.63 61.3466C100.323 69.1354 99.5413 75.6813 98.2866 80.9844C97.0318 86.2637 94.9012 90.2528 91.8945 92.9517C88.9116 95.6506 84.6621 97 79.146 97H76.021ZM216.575 60.6364C216.575 68.4015 215.154 75.0777 212.314 80.6648C209.473 86.2282 205.578 90.5133 200.63 93.5199C195.706 96.5028 190.107 97.9943 183.833 97.9943C177.536 97.9943 171.913 96.5028 166.966 93.5199C162.041 90.5133 158.159 86.2164 155.318 80.6293C152.477 75.0421 151.056 68.3778 151.056 60.6364C151.056 52.8712 152.477 46.2069 155.318 40.6435C158.159 35.0563 162.041 30.7713 166.966 27.7884C171.913 24.7817 177.536 23.2784 183.833 23.2784C190.107 23.2784 195.706 24.7817 200.63 27.7884C205.578 30.7713 209.473 35.0563 212.314 40.6435C215.154 46.2069 216.575 52.8712 216.575 60.6364ZM205.708 60.6364C205.708 54.7178 204.75 49.7344 202.832 45.6861C200.938 41.6141 198.334 38.5365 195.02 36.4531C191.729 34.3461 188 33.2926 183.833 33.2926C179.643 33.2926 175.903 34.3461 172.612 36.4531C169.321 38.5365 166.717 41.6141 164.799 45.6861C162.905 49.7344 161.958 54.7178 161.958 60.6364C161.958 66.5549 162.905 71.5502 164.799 75.6222C166.717 79.6705 169.321 82.7481 172.612 84.8551C175.903 86.9384 179.643 87.9801 183.833 87.9801C188 87.9801 191.729 86.9384 195.02 84.8551C198.334 82.7481 200.938 79.6705 202.832 75.6222C204.75 71.5502 205.708 66.5549 205.708 60.6364ZM230.256 24.2727H243.572L266.726 80.8068H267.578L290.732 24.2727H304.048V97H293.608V44.3722H292.933L271.484 96.8935H262.82L241.371 44.3366H240.696V97H230.256V24.2727ZM326.145 97H314.498L340.669 24.2727H353.347L379.519 97H367.871L347.31 37.483H346.742L326.145 97ZM328.098 68.5199H365.882V77.7528H328.098V68.5199ZM384.517 97V87.483L386.648 87.4119C389.536 87.3409 391.809 86.3584 393.466 84.4645C395.147 82.5705 396.366 79.5166 397.124 75.3026C397.905 71.0885 398.426 65.4659 398.686 58.4347L399.929 24.2727H445.916V97H435.085V33.5767H410.263L409.126 61.3466C408.819 69.1354 408.037 75.6813 406.783 80.9844C405.528 86.2637 403.397 90.2528 400.391 92.9517C397.408 95.6506 393.158 97 387.642 97H384.517ZM468.04 97H456.392L482.564 24.2727H495.241L521.413 97H509.766L489.205 37.483H488.636L468.04 97ZM469.993 68.5199H507.777V77.7528H469.993V68.5199ZM588.903 47.9233H577.823C577.397 45.5559 576.604 43.4725 575.444 41.6733C574.284 39.8741 572.863 38.3471 571.183 37.0923C569.502 35.8376 567.62 34.8906 565.536 34.2514C563.477 33.6122 561.287 33.2926 558.967 33.2926C554.776 33.2926 551.024 34.3461 547.71 36.4531C544.419 38.5601 541.815 41.6496 539.897 45.7216C538.003 49.7936 537.056 54.7652 537.056 60.6364C537.056 66.5549 538.003 71.5502 539.897 75.6222C541.815 79.6941 544.431 82.7718 547.745 84.8551C551.059 86.9384 554.788 87.9801 558.931 87.9801C561.228 87.9801 563.406 87.6723 565.465 87.0568C567.549 86.4176 569.431 85.4825 571.112 84.2514C572.792 83.0204 574.213 81.517 575.373 79.7415C576.557 77.9422 577.373 75.8826 577.823 73.5625L588.903 73.598C588.311 77.1728 587.163 80.4635 585.458 83.4702C583.777 86.4531 581.611 89.0336 578.96 91.2116C576.332 93.366 573.325 95.035 569.94 96.2188C566.554 97.4025 562.861 97.9943 558.86 97.9943C552.563 97.9943 546.952 96.5028 542.028 93.5199C537.103 90.5133 533.221 86.2164 530.38 80.6293C527.563 75.0421 526.154 68.3778 526.154 60.6364C526.154 52.8712 527.575 46.2069 530.415 40.6435C533.256 35.0563 537.139 30.7713 542.063 27.7884C546.987 24.7817 552.586 23.2784 558.86 23.2784C562.719 23.2784 566.317 23.8348 569.656 24.9474C573.017 26.0365 576.036 27.6463 578.711 29.777C581.386 31.884 583.6 34.4645 585.352 37.5185C587.103 40.5488 588.287 44.017 588.903 47.9233ZM609.739 53.6051H629.341C634.739 53.6051 639.332 54.4811 643.12 56.233C646.908 57.9848 649.796 60.4588 651.784 63.6548C653.797 66.8509 654.791 70.6151 654.767 74.9474C654.791 79.2798 653.797 83.1032 651.784 86.4176C649.796 89.732 646.908 92.3243 643.12 94.1946C639.332 96.0649 634.739 97 629.341 97H602.104V24.2727H613.113V87.767H629.341C632.49 87.767 635.141 87.1515 637.296 85.9205C639.474 84.6894 641.119 83.0914 642.232 81.1264C643.368 79.1615 643.936 77.0545 643.936 74.8054C643.936 71.5384 642.682 68.733 640.172 66.3892C637.663 64.0218 634.052 62.8381 629.341 62.8381H609.739V53.6051Z" fill="#FF81B0"/>
</svg>
