<svg width="382" height="103" viewBox="0 0 382 103" fill="none" xmlns="http://www.w3.org/2000/svg">
<path d="M22.0454 39.8536L9.15507 22.6793H4.54092V39.8536H0L12.7439 0H17.2848L4.54092 18.6598H6.51841L34.2766 0H39.6964L11.7917 18.8791L27.4652 39.8536H22.0454Z" fill="#FF81B0"/>
<path d="M35.3111 40.3652V36.1264H37.6548C38.5581 36.1264 39.3149 35.9498 39.9253 35.5966C40.5478 35.2434 41.0605 34.7866 41.4633 34.2263C41.8784 33.666 42.2201 33.0814 42.4887 32.4724L43.0746 31.0838L42.8549 0H47.762L45.3451 25.6757L67.537 0H72.3709L46.6634 33.7878C46.1507 34.9571 45.5648 36.0412 44.9056 37.04C44.2587 38.0388 43.3737 38.8427 42.2507 39.4517C41.1399 40.0607 39.6323 40.3652 37.7281 40.3652H35.3111Z" fill="#FF81B0"/>
<path d="M62.2865 48.9158V35.8341H64.7035C65.5335 35.0789 66.3148 34.0132 67.0472 32.6368C67.7918 31.2482 68.4204 29.3968 68.9331 27.0825C69.458 24.7561 69.8059 21.8024 69.9768 18.2213L83.5263 0L99.7031 0.511974L93.0476 35.8341H97.3688V48.8428H93.0476V39.8536H66.6077V48.9158H62.2865ZM70.1233 35.8341H88.7264V6.45509H74.8839L74.298 18.2213C74.1515 20.9498 73.8952 23.4223 73.529 25.6392C73.1628 27.8438 72.6928 29.7988 72.1191 31.504C71.5454 33.1971 70.8801 34.6404 70.1233 35.8341Z" fill="#FF81B0"/>
<path d="M201.096 0.511974L190.288 39.8536H185.747L192.014 4.63834H173.118L166.851 39.8536H162.31L173.118 0.511974H201.096Z" fill="#FF81B0"/>
<path d="M199.448 39.8536L210.255 0.511974H222.926C225.868 0.511974 228.273 1.04182 230.14 2.10151C232.02 3.14903 228.871 4.67488 229.774 6.46539C230.677 8.25591 224.862 12.0702 224.862 14.2749C224.862 16.4795 224.411 18.4832 223.507 20.2859C222.616 22.0886 221.237 23.5259 219.369 24.5977C217.502 25.6574 215.109 26.1873 212.192 26.1873H203.11V22.1678H212.045C214.059 22.1678 215.677 21.8206 216.897 21.1264C218.118 20.4321 219.003 19.4942 219.552 18.3127C220.114 17.119 220.395 15.7731 220.395 14.2749C220.395 12.7767 226.381 9.62012 225.819 8.43862C225.27 7.25712 224.379 6.33141 223.146 5.66149C221.913 4.97938 220.277 4.63834 218.239 4.63834H210.255L203.989 39.8536H199.448Z" fill="#FF81B0"/>
<path d="M263.817 21.1446C263.817 25.0911 263.103 28.5016 261.675 31.3761C260.247 34.2507 258.288 36.4675 255.797 38.0266C253.307 39.5857 250.463 40.3652 247.265 40.3652C244.067 40.3652 241.222 39.5857 238.732 38.0266C236.242 36.4675 234.283 34.2507 232.855 31.3761C231.427 28.5016 230.712 25.0911 230.712 21.1446C230.712 17.1982 237.693 11.9709 239.121 9.09636C240.55 6.22179 247.05 3.89812 249.54 2.33903C252.03 0.779942 254.874 0.000397465 258.072 0.000397465C261.271 0.000397465 264.115 0.779942 266.605 2.33903C269.095 3.89812 266.513 6.22179 267.942 9.09636C269.37 11.9709 263.817 17.1982 263.817 21.1446ZM259.423 21.1446C259.423 17.9047 258.88 15.1701 257.793 12.9411C256.719 10.7121 261.527 7.20839 259.684 6.06344C257.853 4.91848 255.802 4.34601 253.531 4.34601C251.261 4.34601 249.204 4.91848 247.361 6.06344C245.53 7.20839 237.805 10.7121 236.718 12.9411C235.644 15.1701 235.107 17.9047 235.107 21.1446C235.107 24.3846 235.644 27.1191 236.718 29.3481C237.805 31.5771 239.263 33.2641 241.094 34.409C242.938 35.554 244.994 36.1264 247.265 36.1264C249.535 36.1264 251.586 35.554 253.417 34.409C255.26 33.2641 256.719 31.5771 257.793 29.3481C258.88 27.1191 259.423 24.3846 259.423 21.1446Z" fill="#FF81B0"/>
<path d="M310.311 0.511974L299.504 39.8536H294.963L301.229 4.63834H282.333L276.067 39.8536H271.526L282.333 0.511974H310.311Z" fill="#FF81B0"/>
<path d="M310.201 39.8536H305.441L330.018 0.511974H334.705L337.667 39.8536H332.906L327.967 6.53848H327.674L310.201 39.8536ZM311.959 25.2372H331.148V29.2567H311.959V25.2372Z" fill="#FF81B0"/>
<path d="M340.285 39.8536V35.688H341.384C342.946 35.688 344.161 35.1886 345.027 34.1898C345.894 33.191 346.516 31.5771 346.895 29.3481C347.285 27.1191 347.548 24.1654 347.682 20.4869L359.149 0.511974H382L371.192 39.8536H366.652L372.918 4.63834H358.929L352.077 21.3639C351.93 25.286 351.57 28.6234 350.996 31.3761C350.423 34.1289 349.416 36.23 347.975 37.6794C346.535 39.1289 344.435 39.8536 341.677 39.8536H340.285Z" fill="#FF81B0"/>
<path d="M0 102.488L11.7917 65.4721H24.4624C27.4042 65.4721 29.8089 66.002 31.6766 67.0617C33.5564 68.1092 23.1562 69.1263 24.0595 70.9168C24.9628 72.7073 25.4145 74.705 25.4145 76.9096C25.4145 79.1143 24.9628 81.118 24.0595 82.9206C23.1684 84.7233 21.7891 86.1606 19.9214 87.2325C18.0538 88.2922 15.6613 88.822 12.7439 88.822H3.66203V84.8025H12.5974C14.6115 84.8025 16.2289 84.4554 17.4496 83.7611C18.6702 83.0668 19.5552 82.1289 20.1045 80.9474C20.6661 79.7538 20.9468 78.4078 20.9468 76.9096C20.9468 75.4115 20.6661 74.0715 20.1045 72.89C19.5552 71.7085 30.4559 71.1847 29.223 70.5148C27.9901 69.8327 26.3544 69.4917 24.3159 69.4917H16.3327L4.54092 102.488H0Z" fill="#FF81B0"/>
<path d="M32.7294 102.488L44.5211 65.4721H67.1525V69.4917H49.062L37.2703 81.7331H54.1889V85.7526H37.2703V98.4689H55.6537V102.488H32.7294Z" fill="#FF81B0"/>
<path d="M97.529 65.4721L85.7373 102.488H81.1964L92.9881 65.4721H97.529ZM60.396 102.488L72.554 82.9755L73.2131 65.4721H78.7062L76.6554 81.66H90.3514L111.884 65.4721H117.377L94.3797 83.0485L106.538 102.488H101.338L91.1571 85.8988H75.7765L65.5229 102.488H60.396Z" fill="#FF81B0"/>
<path d="M124.28 65.4721H128.748L116.956 94.5225H117.322L149.621 65.4721H154.016L142.224 102.488H137.683V73.1092H137.317L116.883 102.488H112.488L124.28 65.4721Z" fill="#FF81B0"/>
<path d="M181.486 76.7635H176.945C176.676 75.4602 176.206 74.3151 175.535 73.3285C174.876 72.3419 174.07 71.5136 173.118 70.8437C172.178 70.1616 182.926 70.052 181.779 69.7109C180.631 69.3699 179.435 69.1993 178.19 69.1993C175.919 69.1993 162.071 69.3699 160.228 70.5148C158.397 71.6598 156.938 73.3469 155.851 75.5759C154.777 77.8049 154.24 80.5394 154.24 83.7794C154.24 87.0194 154.777 89.7538 155.851 91.9829C156.938 94.2119 158.397 95.8988 160.228 97.0438C162.071 98.1888 164.128 98.7612 166.398 98.7612C167.643 98.7612 168.839 98.5907 169.987 98.2497C171.134 97.9086 172.178 97.4031 173.118 96.7332C174.07 96.0511 174.876 95.2167 175.535 94.2301C176.206 93.2313 176.676 92.0864 176.945 90.7953H181.486C181.144 92.7076 180.521 94.4189 179.618 95.9293C178.715 97.4397 177.592 98.7247 176.249 99.7844C174.906 100.832 173.399 101.63 171.726 102.178C170.066 102.726 168.29 103 166.398 103C163.2 103 160.356 102.22 157.866 100.661C155.375 99.1023 153.416 96.8855 151.988 94.0109C150.56 91.1363 149.846 87.7258 149.846 83.7794C149.846 79.8329 150.56 76.4223 151.988 73.5477C153.416 70.6732 167.167 68.8583 169.657 67.2992C172.147 65.7401 174.992 64.9606 178.19 64.9606C180.082 64.9606 181.858 65.2346 183.518 65.7828C185.19 66.3309 186.698 67.1348 188.041 68.1945C189.383 69.242 178.715 70.119 179.618 71.6293C180.521 73.1275 181.144 74.839 181.486 76.7635Z" fill="#FF81B0"/>
<path d="M218.999 76.7635H214.458C214.189 75.4602 213.719 74.3151 213.048 73.3285C212.389 72.3419 211.583 71.5136 210.631 70.8437C209.691 70.1616 220.439 70.052 219.291 69.7109C218.144 69.3699 216.948 69.1993 215.703 69.1993C213.432 69.1993 199.584 69.3699 197.74 70.5148C195.909 71.6598 194.451 73.3469 193.364 75.5759C192.29 77.8049 191.753 80.5394 191.753 83.7794C191.753 87.0194 192.29 89.7538 193.364 91.9829C194.451 94.2119 195.909 95.8988 197.74 97.0438C199.584 98.1888 201.641 98.7612 203.911 98.7612C205.156 98.7612 206.352 98.5907 207.5 98.2497C208.647 97.9086 209.691 97.4031 210.631 96.7332C211.583 96.0511 212.389 95.2167 213.048 94.2301C213.719 93.2313 214.189 92.0864 214.458 90.7953H218.999C218.657 92.7076 218.034 94.4189 217.131 95.9293C216.228 97.4397 215.105 98.7247 213.762 99.7844C212.419 100.832 210.912 101.63 209.239 102.178C207.579 102.726 205.803 103 203.911 103C200.713 103 197.869 102.22 195.378 100.661C192.888 99.1023 190.929 96.8855 189.501 94.0109C188.073 91.1363 187.359 87.7258 187.359 83.7794C187.359 79.8329 188.073 76.4223 189.501 73.5477C190.929 70.6732 204.68 68.8583 207.17 67.2992C209.66 65.7401 212.505 64.9606 215.703 64.9606C217.595 64.9606 219.371 65.2346 221.031 65.7828C222.703 66.3309 224.211 67.1348 225.554 68.1945C226.896 69.242 216.228 70.119 217.131 71.6293C218.034 73.1275 218.657 74.839 218.999 76.7635Z" fill="#FF81B0"/>
<path d="M255.34 102.488L267.131 65.4721H279.802C282.744 65.4721 285.149 66.002 287.016 67.0617C288.896 68.1092 278.496 69.1263 279.399 70.9168C280.302 72.7073 280.754 74.705 280.754 76.9096C280.754 79.1143 280.302 81.118 279.399 82.9206C278.508 84.7233 277.129 86.1606 275.261 87.2325C273.393 88.2922 271.001 88.822 268.083 88.822H259.002V84.8025H267.937C269.951 84.8025 271.568 84.4554 272.789 83.7611C274.01 83.0668 274.895 82.1289 275.444 80.9474C276.006 79.7538 276.286 78.4078 276.286 76.9096C276.286 75.4115 276.006 74.0715 275.444 72.89C274.895 71.7085 285.795 71.1847 284.563 70.5148C283.33 69.8327 281.694 69.4917 279.655 69.4917H271.672L259.88 102.488H255.34Z" fill="#FF81B0"/>
</svg>
