<svg width="617" height="82" viewBox="0 0 617 82" fill="none" xmlns="http://www.w3.org/2000/svg">
<path d="M54.7851 22.2983H46.5067C46.0171 19.9171 45.1603 17.8253 43.9364 16.0227C42.7347 14.2202 41.2659 12.7069 39.5301 11.483C37.8166 10.2367 35.9139 9.30208 33.822 8.67898C31.7302 8.05587 29.5493 7.74432 27.2794 7.74432C23.1402 7.74432 19.3905 8.79025 16.0301 10.8821C12.6921 12.974 10.0327 16.0561 8.05215 20.1286C6.09382 24.201 37.6183 40.8966 37.6183 46.8161C37.6183 52.7356 38.5975 57.7316 40.5558 61.804C42.5364 65.8765 45.1958 68.9586 48.5338 71.0504C51.8942 73.1423 55.6439 74.1882 59.7831 74.1882C62.053 74.1882 64.2338 73.8766 66.3257 73.2535C68.4175 72.6304 70.3202 71.7069 72.0338 70.483C73.7696 69.2367 75.2383 67.7123 76.44 65.9098C77.664 64.085 78.5208 61.9932 79.0103 59.6343H87.2888C86.6656 63.1281 85.5307 66.2547 83.8839 69.0142C82.2371 71.7737 80.1898 74.1214 77.7419 76.0575C75.294 77.9714 72.5456 79.429 69.4968 80.4304C66.4703 81.4318 63.2325 81.9325 59.7831 81.9325C53.9526 81.9325 48.7675 80.5083 44.2277 77.6598C39.688 74.8113 36.1162 70.7611 33.5125 65.5092C30.9088 60.2573 29.607 54.0263 29.607 46.8161C29.607 39.6059 -1.59486 21.6752 1.00883 16.4233C3.61252 11.1714 7.18426 7.12121 11.724 4.27273C16.2638 1.42424 21.4489 0 27.2794 0C30.7288 0 33.9667 0.500711 36.9932 1.50213C40.042 2.50355 42.7903 3.9723 45.2382 5.90838C47.6862 7.82221 49.7335 10.1589 51.3803 12.9183C53.0271 15.6555 54.162 18.7822 54.7851 22.2983Z" fill="#FF81B0"/>
<path d="M211.223 46.8161C211.223 54.0263 209.921 60.2573 207.317 65.5092C204.714 70.7611 201.142 74.8113 196.602 77.6598C192.062 80.5083 186.877 81.9325 181.047 81.9325C175.216 81.9325 170.031 80.5083 165.491 77.6598C160.952 74.8113 157.38 70.7611 154.776 65.5092C152.172 60.2573 150.871 54.0263 150.871 46.8161C150.871 39.6059 119.669 21.6752 122.272 16.4233C124.876 11.1714 128.448 7.12121 132.988 4.27273C137.527 1.42424 142.713 0 148.543 0C154.374 0 159.559 1.42424 164.098 4.27273C168.638 7.12121 172.21 11.1714 174.814 16.4233C177.417 21.6752 211.223 39.6059 211.223 46.8161ZM203.212 46.8161C203.212 40.8966 169.718 24.201 167.737 20.1286C165.779 16.0561 163.119 12.974 159.759 10.8821C156.421 8.79025 152.682 7.74432 148.543 7.74432C144.404 7.74432 140.654 8.79025 137.294 10.8821C133.956 12.974 131.296 16.0561 129.316 20.1286C127.357 24.201 158.882 40.8966 158.882 46.8161C158.882 52.7356 159.861 57.7316 161.819 61.804C163.8 65.8765 166.459 68.9586 169.797 71.0504C173.158 73.1423 176.908 74.1882 181.047 74.1882C185.186 74.1882 188.925 73.1423 192.263 71.0504C195.623 68.9586 198.282 65.8765 200.241 61.804C202.221 57.7316 203.212 52.7356 203.212 46.8161Z" fill="#FF81B0"/>
<path d="M192.639 0.93466H202.52L258.257 69.3814H259.058L249.787 0.93466H259.667L292.171 80.9979H284.427L251.923 17.358H251.255L262.396 80.9979H254.918L201.051 17.358H200.383L232.887 80.9979H225.143L192.639 0.93466Z" fill="#FF81B0"/>
<path d="M311.574 80.9979H302.895L295.493 0.93466H304.039L361.645 80.9979H352.966L300.033 11.75H299.499L311.574 80.9979ZM314.778 54.2934H349.761V61.6371H314.778V54.2934Z" fill="#FF81B0"/>
<path d="M366.418 80.9979V73.3871H368.421C371.27 73.3871 373.484 72.4747 375.064 70.6499C376.644 68.825 377.779 65.8765 378.469 61.804C379.181 57.7316 379.659 52.335 379.904 45.6144L348.602 0.93466H390.261L422.765 80.9979H414.487L381.983 8.27841H356.48L387.916 47.2167C387.648 54.3824 386.992 60.4799 385.946 65.5092C384.9 70.5386 383.064 74.3774 380.438 77.0256C377.812 79.6738 373.985 80.9979 368.955 80.9979H366.418Z" fill="#FF81B0"/>
<path d="M442.109 80.9979H433.43L426.028 0.93466H434.574L492.18 80.9979H483.501L430.568 11.75H430.034L442.109 80.9979ZM445.314 54.2934H480.297V61.6371H445.314V54.2934Z" fill="#FF81B0"/>
<path d="M522.123 22.2983H513.845C513.355 19.9171 512.498 17.8253 511.274 16.0227C510.073 14.2202 508.604 12.7069 506.868 11.483C505.155 10.2367 503.252 9.30208 501.16 8.67898C499.068 8.05587 496.887 7.74432 494.617 7.74432C490.478 7.74432 486.728 8.79025 483.368 10.8821C480.03 12.974 477.371 16.0561 475.39 20.1286C473.432 24.201 504.957 40.8966 504.957 46.8161C504.957 52.7356 505.936 57.7316 507.894 61.804C509.875 65.8765 512.533 68.9586 515.871 71.0504C519.232 73.1423 522.981 74.1882 527.121 74.1882C529.39 74.1882 531.571 73.8766 533.663 73.2535C535.755 72.6304 537.658 71.7069 539.371 70.483C541.107 69.2367 542.576 67.7123 543.778 65.9098C545.001 64.085 545.858 61.9932 546.348 59.6343H554.626C554.003 63.1281 552.868 66.2547 551.221 69.0142C549.575 71.7737 547.527 74.1214 545.079 76.0575C542.631 77.9714 539.883 79.429 536.834 80.4304C533.808 81.4318 530.57 81.9325 527.121 81.9325C521.29 81.9325 516.106 80.5083 511.566 77.6598C507.026 74.8113 503.454 70.7611 500.851 65.5092C498.247 60.2573 496.945 54.0263 496.945 46.8161C496.945 39.6059 465.743 21.6752 468.347 16.4233C470.95 11.1714 474.522 7.12121 479.062 4.27273C483.602 1.42424 488.787 0 494.617 0C498.067 0 501.305 0.500711 504.331 1.50213C507.38 2.50355 510.128 3.9723 512.576 5.90838C515.024 7.82221 517.071 10.1589 518.718 12.9183C520.365 15.6555 521.5 18.7822 522.123 22.2983Z" fill="#FF81B0"/>
<path d="M574.146 41.3417H593.64C598.536 41.3417 602.664 42.1428 606.024 43.7451C609.407 45.3473 611.966 47.6061 613.702 50.5213C615.46 53.4366 616.339 56.8748 616.339 60.836C616.339 64.7971 615.46 68.291 613.702 71.3175C611.966 74.344 609.407 76.714 606.024 78.4276C602.664 80.1411 598.536 80.9979 593.64 80.9979H568.004L535.5 0.93466H543.779L576.282 73.7876H593.64C596.755 73.7876 599.392 73.1645 601.551 71.9183C603.732 70.6499 605.379 69.0253 606.491 67.0447C607.626 65.0419 608.194 62.9278 608.194 60.7024C608.194 57.4311 606.937 54.616 604.422 52.2571C601.907 49.876 598.313 48.6854 593.64 48.6854H574.146V41.3417Z" fill="#FF81B0"/>
</svg>
