<svg width="559" height="81" viewBox="0 0 559 81" fill="none" xmlns="http://www.w3.org/2000/svg">
<path d="M0.0429688 80.5551V56.6545H4.44922C5.96248 55.2747 7.38672 53.3276 8.72195 50.8129C10.0794 48.276 11.2255 44.8934 12.1602 40.6652C13.1171 36.4147 13.7513 31.0182 14.0629 24.4755L46.724 0.84375H87.315L56.1225 56.6545H64.0004V80.4215H56.1225V63.9982H7.92081V80.5551H0.0429688ZM14.3299 56.6545H48.2447L79.4371 8.1875H54.2013L21.9407 24.4755C21.6737 29.4604 21.2063 33.9779 20.5387 38.0281C19.8711 42.056 19.0143 45.6278 17.9684 48.7433C16.9225 51.8366 15.7096 54.4736 14.3299 56.6545Z" fill="#FF81B0"/>
<path d="M76.5098 63.9982L107.702 0.84375H148.961V8.1875H115.981L84.7882 26.0778H115.632V33.4216H84.7882V56.6545H118.302V63.9982H76.5098Z" fill="#FF81B0"/>
<path d="M231.578 0.84375V8.1875H198.598L167.405 63.9982H159.127L190.319 0.84375H231.578Z" fill="#FF81B0"/>
<path d="M213.195 63.9982L244.388 0.84375H267.487C272.85 0.84375 277.234 1.81179 280.639 3.74787C284.066 5.6617 286.603 8.25426 288.25 11.5256C289.897 14.7969 259.528 13.2374 259.528 17.2653C259.528 21.2932 258.704 24.954 257.058 28.2476C255.433 31.5411 252.918 34.1671 249.513 36.1254C246.109 38.0615 241.747 39.0295 236.428 39.0295H219.871V31.6858H236.161C239.833 31.6858 242.782 31.0515 245.007 29.7831C247.232 28.5146 248.846 26.8011 249.847 24.6424C250.871 22.4616 251.383 20.0025 251.383 17.2653C251.383 14.5281 282.063 17.2893 281.04 15.1307C280.038 12.9721 278.414 11.2808 276.166 10.0568C273.919 8.81061 270.937 8.1875 267.22 8.1875H252.666L221.474 63.9982H213.195Z" fill="#FF81B0"/>
<path d="M304.056 0.84375H312.201L281.008 49.4443H281.676L350.255 0.84375H358.266L327.074 63.9982H318.795L349.988 15.5312H349.32L280.875 63.9982H272.863L304.056 0.84375Z" fill="#FF81B0"/>
<path d="M374.831 0.84375H384.712L376.752 52.3818H377.553L431.979 0.84375H441.86L410.667 63.9982H402.923L434.115 17.267H433.448L380.892 63.9982H373.414L383.243 17.267H382.575L351.383 63.9982H343.639L374.831 0.84375Z" fill="#FF81B0"/>
<path d="M427.266 63.9982L458.458 0.84375H499.717V8.1875H466.736L435.544 26.0778H466.388V33.4216H435.544V56.6545H469.058V63.9982H427.266Z" fill="#FF81B0"/>
<path d="M483.445 63.9982L514.638 0.84375H537.737C543.1 0.84375 547.484 1.81179 550.889 3.74787C554.316 5.6617 556.853 8.25426 558.5 11.5256C560.147 14.7969 529.778 13.2374 529.778 17.2653C529.778 21.2932 528.954 24.954 527.307 28.2476C525.683 31.5411 523.168 34.1671 519.763 36.1254C516.359 38.0615 511.997 39.0295 506.678 39.0295H490.121V31.6858H506.411C510.083 31.6858 513.032 31.0515 515.257 29.7831C517.482 28.5146 519.096 26.8011 520.097 24.6424C521.121 22.4616 521.633 20.0025 521.633 17.2653C521.633 14.5281 552.313 17.2893 551.29 15.1307C550.288 12.9721 548.664 11.2808 546.416 10.0568C544.169 8.81061 541.186 8.1875 537.47 8.1875H522.916L491.724 63.9982H483.445Z" fill="#FF81B0"/>
</svg>
