<svg width="385" height="115" viewBox="0 0 385 115" fill="none" xmlns="http://www.w3.org/2000/svg">
<path d="M2.4858 114.578V87.696H7.27983C8.91335 86.3229 10.4403 84.3698 11.8608 81.8366C13.2813 79.3035 14.4886 75.8826 15.483 71.5739C16.4773 67.2652 17.1638 61.7372 17.5426 54.9901L19.2472 24.2727H64.098V87.696H72.3366V114.472H61.8253V97H12.9972V114.578H2.4858ZM20.206 87.696H53.5866V33.7188H29.1903L28.054 54.9901C27.7462 60.1274 27.2372 64.7438 26.527 68.8395C25.8404 72.9351 24.9527 76.5573 23.8636 79.706C22.7983 82.831 21.5791 85.4943 20.206 87.696ZM84.3572 97V24.2727H110.991C116.152 24.2727 120.425 25.125 123.81 26.8295C127.196 28.5104 129.729 30.795 131.41 33.6832C133.091 36.5478 133.931 39.7794 133.931 43.3778C133.931 46.4081 133.375 48.965 132.262 51.0483C131.149 53.108 129.658 54.7651 127.788 56.0199C125.941 57.2509 123.905 58.1506 121.68 58.7188V59.429C124.094 59.5473 126.45 60.3286 128.746 61.7727C131.067 63.1932 132.984 65.2173 134.499 67.8452C136.014 70.473 136.772 73.669 136.772 77.4332C136.772 81.1501 135.896 84.4882 134.144 87.4474C132.416 90.383 129.741 92.715 126.119 94.4432C122.496 96.1477 117.868 97 112.234 97H84.3572ZM95.3303 87.5895H111.168C116.424 87.5895 120.188 86.5715 122.461 84.5355C124.734 82.4995 125.87 79.9545 125.87 76.9006C125.87 74.6042 125.29 72.4972 124.13 70.5795C122.97 68.6619 121.313 67.1349 119.158 65.9986C117.028 64.8622 114.495 64.294 111.559 64.294H95.3303V87.5895ZM95.3303 55.7358H110.032C112.494 55.7358 114.708 55.2623 116.673 54.3153C118.661 53.3684 120.236 52.0426 121.396 50.3381C122.579 48.6098 123.171 46.5739 123.171 44.2301C123.171 41.2235 122.118 38.7022 120.011 36.6662C117.904 34.6302 114.672 33.6122 110.316 33.6122H95.3303V55.7358ZM149.787 97V24.2727H195.384V33.7188H160.76V55.8778H193.004V65.2884H160.76V87.554H195.81V97H149.787ZM210.041 97V24.2727H235.964C241.622 24.2727 246.31 25.3026 250.027 27.3622C253.743 29.4219 256.525 32.2391 258.372 35.8139C260.218 39.3651 261.142 43.366 261.142 47.8168C261.142 52.2912 260.207 56.3158 258.336 59.8906C256.49 63.4418 253.696 66.259 249.956 68.3423C246.239 70.402 241.563 71.4318 235.929 71.4318H218.102V62.1278H234.934C238.509 62.1278 241.409 61.5123 243.635 60.2812C245.86 59.0265 247.493 57.322 248.535 55.1676C249.577 53.0133 250.098 50.563 250.098 47.8168C250.098 45.0705 249.577 42.6321 248.535 40.5014C247.493 38.3707 245.848 36.7017 243.599 35.4943C241.374 34.2869 238.438 33.6832 234.792 33.6832H221.014V97H210.041ZM281.712 53.6051H301.314C306.712 53.6051 311.304 54.4811 315.092 56.233C318.88 57.9848 321.768 60.4588 323.757 63.6548C325.769 66.8509 326.764 70.6151 326.74 74.9474C326.764 79.2798 325.769 83.1032 323.757 86.4176C321.768 89.732 318.88 92.3243 315.092 94.1946C311.304 96.0649 306.712 97 301.314 97H274.077V24.2727H285.085V87.767H301.314C304.463 87.767 307.114 87.1515 309.268 85.9205C311.446 84.6894 313.092 83.0914 314.205 81.1264C315.341 79.1615 315.909 77.0545 315.909 74.8054C315.909 71.5384 314.654 68.733 312.145 66.3892C309.635 64.0218 306.025 62.8381 301.314 62.8381H281.712V53.6051Z" fill="#FF81B0"/>
</svg>
