<svg width="309" height="91" viewBox="0 0 309 91" fill="none" xmlns="http://www.w3.org/2000/svg">
<path d="M0.215332 0.498535H5.05056L21.2556 28.3153H21.6477L28.1812 0.498535H33.0165L37.8522 34H34.0625L37.8522 6.99854H37.5255L23.2812 34H19.6221L12.9573 6.99854H12.6306L8.84087 34H5.0511L0.215332 0.498535Z" fill="#FF81B0"/>
<path d="M52.8521 12.9985H62.3918C64.7877 12.9985 62.9363 14.9858 64.5808 15.7698C66.2361 16.5539 67.4884 17.6593 68.3379 19.0859C69.1982 20.5125 69.6283 22.195 69.6283 24.1335C69.6283 26.0719 69.1982 27.7817 68.3379 29.2627C67.4884 30.7438 66.2361 31.9036 64.5808 32.7421C62.9363 33.5807 60.9162 34 58.5204 34H45.9749L41.1392 0.498535H45.1903L50.0261 30.4715H58.5204C60.045 30.4715 61.3355 30.1666 62.3918 29.5568C63.4591 28.936 64.2649 28.1411 64.8095 27.1718C65.3649 26.1917 65.6425 25.1572 65.6425 24.0681C65.6425 22.4673 65.0273 21.0897 63.7967 19.9353C62.5661 18.7701 60.8073 18.1875 58.5204 18.1875H48.9806L52.8521 12.9985ZM72.1108 0.498535L76.9465 34H72.8954L68.0596 0.498535H72.1108Z" fill="#FF81B0"/>
<path d="M30.9261 90L21.2556 57.2478H41.446V60.8416H25.3068L26.0909 70.0301H41.1846V73.6239H26.0909L34.9772 86.4062H51.3778V90H30.9261Z" fill="#FF81B0"/>
<path d="M73.12 90.4573V86.6676H75.2109C76.0168 86.6676 76.692 86.5097 77.2365 86.1938C77.7919 85.878 78.2493 85.4697 78.6086 84.9687C78.9789 84.4678 79.2838 83.945 79.5234 83.4005L80.0461 82.159L58.8103 57.2478H63.1882L82.0717 77.3238L80.8302 57.2478H85.1427L83.2478 84.5767C82.7905 85.6221 82.2677 86.5913 81.6796 87.4843C81.1025 88.3773 80.3129 89.0961 79.311 89.6406C78.32 90.1851 76.9751 90.4573 75.2763 90.4573H73.12Z" fill="#FF81B0"/>
<path d="M116.523 65.587H112.471C112.232 64.4217 120.699 64.811 120.1 63.9289C119.512 63.0468 109.123 63.0087 108.273 62.4098C107.435 61.7999 106.504 61.3425 105.48 61.0376C104.456 60.7327 103.389 60.5802 102.278 60.5802C100.253 60.5802 98.4178 61.092 96.7734 62.1157C95.1399 63.1394 94.6226 62.5323 93.6534 64.5252C92.695 66.5181 92.2159 68.9629 92.2159 71.8597C92.2159 74.7565 101.581 78.6143 102.54 80.6072C103.509 82.6001 104.81 84.1084 106.444 85.1321C108.088 86.1557 109.923 86.6676 111.949 86.6676C113.06 86.6676 114.127 86.5151 115.151 86.2102C116.174 85.9053 117.105 85.4533 117.944 84.8544C118.793 84.2445 119.512 83.4985 120.1 82.6164C120.699 81.7234 121.118 80.6998 121.358 79.5454H125.409C125.104 81.2552 124.549 82.7852 123.743 84.1356C122.937 85.486 121.935 86.6349 120.737 87.5823C119.539 88.5189 118.194 89.2322 116.702 89.7223C115.221 90.2123 113.637 90.4573 111.949 90.4573C109.096 90.4573 106.558 89.7604 104.337 88.3664C102.115 86.9725 100.367 84.9905 99.093 82.4204C97.8189 79.8503 88.2954 75.3881 88.2954 71.8597C88.2954 68.3313 88.9325 65.282 99.093 64.125C100.367 61.5549 92.4446 60.2753 94.6662 58.8813C96.8878 57.4874 99.4252 56.7904 102.278 56.7904C103.966 56.7904 105.551 57.0355 107.032 57.5255C108.524 58.0156 109.869 58.7343 111.067 59.6818C112.265 60.6183 122.937 61.0594 123.743 62.4098C124.549 63.7492 116.218 63.8663 116.523 65.587Z" fill="#FF81B0"/>
<path d="M147.31 57.2478L156.981 90H152.93L143.259 60.8416H126.401L136.072 90H132.021L122.35 57.2478H147.31Z" fill="#FF81B0"/>
<path d="M165.153 90L155.482 57.2478H175.672V60.8416H159.533L160.317 70.0301H175.411V73.6239H160.317L169.204 86.4062H185.604V90H165.153Z" fill="#FF81B0"/>
<path d="M192.645 90L182.974 57.2478H194.67C197.001 57.2478 198.923 57.6508 200.437 58.4566C201.95 59.2516 203.078 60.3243 203.818 61.6747C204.559 63.0142 205.713 62.3852 205.713 64.0188C205.713 65.4563 205.457 66.6433 204.945 67.5798C204.444 68.5164 203.78 69.2569 202.952 69.8014C202.136 70.346 201.248 70.7489 200.29 71.0102V71.337C201.313 71.4023 202.342 71.7617 203.377 72.4151C204.412 73.0685 214.164 75.418 214.861 76.6377C215.558 77.8574 215.906 79.3494 215.906 81.1136C215.906 82.7907 215.525 84.299 214.763 85.6385C214 86.9779 212.797 88.0397 211.153 88.8238C209.508 89.6079 207.368 90 204.733 90H192.645ZM196.696 86.4062H204.733C207.379 86.4062 209.258 85.8944 210.368 84.8707C211.49 83.8361 212.051 82.5838 212.051 81.1136C212.051 79.981 211.762 78.9356 211.185 77.9772C210.608 77.008 209.786 76.2348 208.719 75.6576C207.651 75.0696 197.502 73.3625 196.042 73.3625H187.81L196.696 86.4062ZM187.81 69.8341H195.324C196.543 69.8341 197.643 69.5945 198.623 69.1154C199.614 68.6362 200.399 67.961 200.976 67.0898C201.564 66.2186 201.858 65.1949 201.858 64.0188C201.858 62.5486 200.562 63.4171 199.538 62.3934C198.515 61.3589 196.892 60.8416 194.67 60.8416H187.025L187.81 69.8341Z" fill="#FF81B0"/>
<path d="M248.438 90L238.767 57.2478H258.958V60.8416H242.819L243.603 70.0301H258.697V73.6239H243.603L252.489 86.4062H268.89V90H248.438Z" fill="#FF81B0"/>
<path d="M266.26 57.2478H271.095L292.135 84.3153H292.527L294.226 57.2478H299.061L308.731 90H304.941V64.5823H304.615L294.16 90H290.501L280.047 64.5823H279.72V90H275.93L266.26 57.2478Z" fill="#FF81B0"/>
</svg>
