<svg width="389" height="128" viewBox="0 0 389 128" fill="none" xmlns="http://www.w3.org/2000/svg">
<path d="M27.1023 51L14.1534 33.7223H10.0504V51H4.23473V12.4545H10.0504V28.7347H11.9514L26.5188 12.4545H33.6143L18.1999 29.7134L34.1978 51H27.1023ZM42.3144 51.527V46.4077H44.6294C45.5955 46.4077 46.3923 46.2446 47.0196 45.9183C47.6595 45.5921 48.1802 45.1529 48.5818 44.6009C48.9958 44.0362 49.3409 43.4214 49.6169 42.7564L50.1627 41.3825L36.6116 12.4545H42.7849L52.8918 34.7386L61.8882 12.4545H67.9862L54.661 44.3185C54.0963 45.5984 53.4439 46.7841 52.7036 47.8757C51.9758 48.9673 51.0034 49.8519 49.7863 50.5295C48.5692 51.1945 46.9569 51.527 44.9493 51.527H42.3144ZM70.5694 60.3164V46.0689H73.1103C73.976 45.3411 74.7853 44.306 75.5382 42.9634C76.291 41.6209 76.9309 39.8078 77.4579 37.5241C77.9849 35.2405 78.3488 32.3107 78.5495 28.7347L79.4529 12.4545H103.224V46.0689H107.59V60.2599H102.019V51H76.1404V60.3164H70.5694ZM79.9611 46.0689H97.6529V17.4609H84.7228L84.1206 28.7347C83.9574 31.4575 83.6877 33.9042 83.3113 36.0749C82.9474 38.2456 82.4769 40.1654 81.8997 41.8342C81.335 43.4904 80.6889 44.902 79.9611 46.0689ZM117.217 51H111.044L124.915 12.4545H131.634L145.505 51H139.332L128.435 19.456H128.134L117.217 51ZM118.252 35.9055H138.278V40.799H118.252V35.9055ZM195.23 12.4545V51H189.434V17.4233H171.29V51H165.493V12.4545H195.23ZM204.123 51V12.4545H217.863C220.862 12.4545 223.346 13.0004 225.316 14.092C227.286 15.1836 228.76 16.6767 229.739 18.5714C230.718 20.4535 231.207 22.574 231.207 24.9329C231.207 27.3043 230.711 29.4374 229.72 31.332C228.741 33.2141 227.261 34.7073 225.278 35.8114C223.308 36.9031 220.83 37.4489 217.844 37.4489H208.396V32.5178H217.317C219.212 32.5178 220.749 32.1915 221.928 31.5391C223.108 30.8741 223.973 29.9706 224.525 28.8288C225.077 27.687 225.354 26.3884 225.354 24.9329C225.354 23.4774 225.077 22.185 224.525 21.0558C223.973 19.9265 223.101 19.0419 221.909 18.402C220.73 17.7621 219.174 17.4421 217.242 17.4421H209.939V51H204.123ZM271.507 31.7273C271.507 35.8428 270.755 39.3812 269.249 42.3423C267.743 45.291 265.679 47.562 263.057 49.1555C260.447 50.7365 257.479 51.527 254.154 51.527C250.817 51.527 247.837 50.7365 245.214 49.1555C242.605 47.562 240.547 45.2847 239.041 42.3235C237.535 39.3623 236.783 35.8303 236.783 31.7273C236.783 27.6117 237.535 24.0797 239.041 21.131C240.547 18.1699 242.605 15.8988 245.214 14.3178C247.837 12.7243 250.817 11.9276 254.154 11.9276C257.479 11.9276 260.447 12.7243 263.057 14.3178C265.679 15.8988 267.743 18.1699 269.249 21.131C270.755 24.0797 271.507 27.6117 271.507 31.7273ZM265.748 31.7273C265.748 28.5904 265.24 25.9492 264.224 23.8036C263.22 21.6455 261.84 20.0143 260.083 18.9102C258.339 17.7934 256.363 17.2351 254.154 17.2351C251.934 17.2351 249.951 17.7934 248.207 18.9102C246.463 20.0143 245.083 21.6455 244.066 23.8036C243.063 25.9492 242.561 28.5904 242.561 31.7273C242.561 34.8641 243.063 37.5116 244.066 39.6697C245.083 41.8153 246.463 43.4465 248.207 44.5632C249.951 45.6674 251.934 46.2195 254.154 46.2195C256.363 46.2195 258.339 45.6674 260.083 44.5632C261.84 43.4465 263.22 41.8153 264.224 39.6697C265.24 37.5116 265.748 34.8641 265.748 31.7273ZM308.891 12.4545V51H303.094V17.4233H284.95V51H279.153V12.4545H308.891ZM321.04 51H314.866L328.737 12.4545H335.456L349.328 51H343.154L332.257 19.456H331.956L321.04 51ZM322.075 35.9055H342.1V40.799H322.075V35.9055ZM351.977 51V45.956L353.106 45.9183C354.637 45.8807 355.841 45.36 356.72 44.3562C357.61 43.3524 358.257 41.7338 358.658 39.5004C359.072 37.2669 359.348 34.2869 359.486 30.5604L360.145 12.4545H384.518V51H378.778V17.3857H365.622L365.02 32.1037C364.857 36.2318 364.442 39.7011 363.777 42.5117C363.112 45.3098 361.983 47.424 360.39 48.8544C358.809 50.2848 356.556 51 353.633 51H351.977ZM4.23473 115V76.4545H17.9741C20.9729 76.4545 23.4573 77.0004 25.4272 78.092C27.3971 79.1836 28.8714 80.6767 29.8501 82.5714C30.8288 84.4535 31.3182 86.574 31.3182 88.9329C31.3182 91.3043 30.8226 93.4374 29.8313 95.332C28.8526 97.2141 27.372 98.7073 25.3896 99.8114C23.4196 100.903 20.9415 101.449 17.9553 101.449H8.5071V96.5178H17.4283C19.3229 96.5178 20.86 96.1915 22.0394 95.5391C23.2189 94.8741 24.0846 93.9706 24.6367 92.8288C25.1888 91.687 25.4648 90.3884 25.4648 88.9329C25.4648 87.4774 25.1888 86.185 24.6367 85.0558C24.0846 83.9265 23.2126 83.0419 22.0206 82.402C20.8411 81.7621 19.2853 81.4421 17.353 81.4421H10.0504V115H4.23473ZM38.1361 115V76.4545H62.3023V81.4609H43.9518V93.2053H61.0413V98.1928H43.9518V109.994H62.5281V115H38.1361ZM95.065 76.4545V115H89.3058V76.4545H95.065ZM67.304 115L79.6506 94.8239L68.1697 76.4545H75.2841L84.8452 93.13H99.6573L109.143 76.4545H116.239L104.795 94.8615L117.067 115H110.272L100.58 98.5504H83.8477L74.0231 115H67.304ZM122.76 76.4545H128.519V104.761H128.877L148.488 76.4545H153.871V115H148.056V86.7308H147.698L128.124 115H122.76V76.4545ZM194.369 88.9893H188.497C188.271 87.7346 187.851 86.6304 187.236 85.6768C186.621 84.7232 185.869 83.9139 184.978 83.2489C184.087 82.5839 183.089 82.082 181.985 81.7433C180.894 81.4045 179.733 81.2351 178.503 81.2351C176.282 81.2351 174.294 81.7934 172.537 82.9102C170.793 84.0269 169.413 85.6643 168.396 87.8224C167.393 89.9806 166.891 92.6155 166.891 95.7273C166.891 98.8641 167.393 101.512 168.396 103.67C169.413 105.828 170.799 107.459 172.556 108.563C174.312 109.667 176.289 110.219 178.484 110.219C179.702 110.219 180.856 110.056 181.948 109.73C183.052 109.391 184.049 108.896 184.94 108.243C185.831 107.591 186.584 106.794 187.199 105.853C187.826 104.899 188.259 103.808 188.497 102.578L194.369 102.597C194.056 104.492 193.447 106.236 192.544 107.829C191.653 109.41 190.505 110.778 189.1 111.932C187.707 113.074 186.113 113.959 184.319 114.586C182.525 115.213 180.567 115.527 178.447 115.527C175.109 115.527 172.136 114.737 169.526 113.156C166.916 111.562 164.858 109.285 163.352 106.324C161.859 103.362 161.113 99.8303 161.113 95.7273C161.113 91.6117 161.866 88.0797 163.371 85.131C164.877 82.1699 166.935 79.8988 169.544 78.3178C172.154 76.7243 175.122 75.9276 178.447 75.9276C180.492 75.9276 182.399 76.2224 184.168 76.8121C185.95 77.3893 187.55 78.2425 188.968 79.3718C190.386 80.4885 191.559 81.8562 192.487 83.4748C193.416 85.0808 194.043 86.919 194.369 88.9893ZM233.343 88.9893H227.471C227.245 87.7346 226.825 86.6304 226.21 85.6768C225.595 84.7232 224.842 83.9139 223.951 83.2489C223.06 82.5839 222.063 82.082 220.959 81.7433C219.867 81.4045 218.707 81.2351 217.477 81.2351C215.256 81.2351 213.267 81.7934 211.511 82.9102C209.767 84.0269 208.386 85.6643 207.37 87.8224C206.366 89.9806 205.864 92.6155 205.864 95.7273C205.864 98.8641 206.366 101.512 207.37 103.67C208.386 105.828 209.773 107.459 211.529 108.563C213.286 109.667 215.262 110.219 217.458 110.219C218.675 110.219 219.83 110.056 220.921 109.73C222.025 109.391 223.023 108.896 223.914 108.243C224.805 107.591 225.557 106.794 226.172 105.853C226.8 104.899 227.232 103.808 227.471 102.578L233.343 102.597C233.029 104.492 232.421 106.236 231.517 107.829C230.627 109.41 229.478 110.778 228.073 111.932C226.68 113.074 225.087 113.959 223.293 114.586C221.498 115.213 219.541 115.527 217.42 115.527C214.083 115.527 211.109 114.737 208.499 113.156C205.889 111.562 203.832 109.285 202.326 106.324C200.833 103.362 200.086 99.8303 200.086 95.7273C200.086 91.6117 200.839 88.0797 202.345 85.131C203.85 82.1699 205.908 79.8988 208.518 78.3178C211.128 76.7243 214.095 75.9276 217.42 75.9276C219.466 75.9276 221.373 76.2224 223.142 76.8121C224.924 77.3893 226.524 78.2425 227.941 79.3718C229.359 80.4885 230.532 81.8562 231.461 83.4748C232.389 85.0808 233.017 86.919 233.343 88.9893ZM240.302 115V76.4545H264.468V81.4609H246.118V93.2053H263.207V98.1928H246.118V109.994H264.694V115H240.302ZM272.237 115V76.4545H285.976C288.975 76.4545 291.459 77.0004 293.429 78.092C295.399 79.1836 296.873 80.6767 297.852 82.5714C298.831 84.4535 299.32 86.574 299.32 88.9329C299.32 91.3043 298.825 93.4374 297.833 95.332C296.855 97.2141 295.374 98.7073 293.392 99.8114C291.422 100.903 288.943 101.449 285.957 101.449H276.509V96.5178H285.43C287.325 96.5178 288.862 96.1915 290.041 95.5391C291.221 94.8741 292.087 93.9706 292.639 92.8288C293.191 91.687 293.467 90.3884 293.467 88.9329C293.467 87.4774 293.191 86.185 292.639 85.0558C292.087 83.9265 291.215 83.0419 290.023 82.402C288.843 81.7621 287.287 81.4421 285.355 81.4421H278.052V115H272.237Z" fill="#FF81B0"/>
</svg>
